<mxfile host="app.diagrams.net" agent="Mozilla/5.0 (Windows NT 10.0; Win64; x64) AppleWebKit/537.36 (KHTML, like Gecko) Chrome/136.0.0.0 Safari/537.36 Edg/136.0.0.0" version="27.0.5">
  <diagram name="Page-1" id="c0tgbVqFojr9AY3EC7dK">
    <mxGraphModel dx="14180" dy="7940" grid="1" gridSize="10" guides="1" tooltips="1" connect="1" arrows="1" fold="1" page="1" pageScale="1" pageWidth="1100" pageHeight="1700" math="0" shadow="0">
      <root>
        <mxCell id="0" />
        <mxCell id="1" parent="0" />
        <mxCell id="PWu2976QpV0TzekF0w1F-4" value="" style="shape=internalStorage;whiteSpace=wrap;html=1;backgroundOutline=1;dx=270;dy=40;" parent="1" vertex="1">
          <mxGeometry x="70" y="40" width="540" height="820" as="geometry" />
        </mxCell>
        <mxCell id="PWu2976QpV0TzekF0w1F-5" value="Scholarship Admin" style="text;html=1;align=center;verticalAlign=middle;resizable=0;points=[];autosize=1;strokeColor=none;fillColor=none;fontFamily=Lucida Console;fontSize=17;" parent="1" vertex="1">
          <mxGeometry x="110" y="50" width="200" height="30" as="geometry" />
        </mxCell>
        <mxCell id="PWu2976QpV0TzekF0w1F-6" value="Proposed System" style="text;html=1;align=center;verticalAlign=middle;resizable=0;points=[];autosize=1;strokeColor=none;fillColor=none;fontFamily=Lucida Console;fontSize=17;" parent="1" vertex="1">
          <mxGeometry x="390" y="50" width="180" height="30" as="geometry" />
        </mxCell>
        <mxCell id="PWu2976QpV0TzekF0w1F-7" value="" style="ellipse;html=1;shape=startState;fillColor=#000000;strokeColor=#ff0000;" parent="1" vertex="1">
          <mxGeometry x="185" y="126" width="50" height="50" as="geometry" />
        </mxCell>
        <mxCell id="PWu2976QpV0TzekF0w1F-8" value="" style="edgeStyle=orthogonalEdgeStyle;html=1;verticalAlign=bottom;endArrow=open;endSize=8;strokeColor=#ff0000;rounded=0;entryX=0.5;entryY=0;entryDx=0;entryDy=0;" parent="1" target="PWu2976QpV0TzekF0w1F-9" edge="1">
          <mxGeometry relative="1" as="geometry">
            <mxPoint x="210" y="192" as="targetPoint" />
            <mxPoint x="210" y="172" as="sourcePoint" />
          </mxGeometry>
        </mxCell>
        <mxCell id="PWu2976QpV0TzekF0w1F-20" style="edgeStyle=orthogonalEdgeStyle;rounded=0;orthogonalLoop=1;jettySize=auto;html=1;exitX=1;exitY=0.5;exitDx=0;exitDy=0;" parent="1" source="PWu2976QpV0TzekF0w1F-9" target="PWu2976QpV0TzekF0w1F-13" edge="1">
          <mxGeometry relative="1" as="geometry" />
        </mxCell>
        <mxCell id="PWu2976QpV0TzekF0w1F-9" value="" style="html=1;whiteSpace=wrap;rounded=1;arcSize=38;" parent="1" vertex="1">
          <mxGeometry x="155" y="202" width="110" height="50" as="geometry" />
        </mxCell>
        <mxCell id="PWu2976QpV0TzekF0w1F-10" value="Start" style="text;html=1;align=center;verticalAlign=middle;resizable=0;points=[];autosize=1;strokeColor=none;fillColor=none;fontFamily=Lucida Console;fontSize=17;" parent="1" vertex="1">
          <mxGeometry x="175" y="212" width="70" height="30" as="geometry" />
        </mxCell>
        <mxCell id="PWu2976QpV0TzekF0w1F-21" style="edgeStyle=orthogonalEdgeStyle;rounded=0;orthogonalLoop=1;jettySize=auto;html=1;exitX=0.5;exitY=1;exitDx=0;exitDy=0;" parent="1" source="PWu2976QpV0TzekF0w1F-13" target="PWu2976QpV0TzekF0w1F-14" edge="1">
          <mxGeometry relative="1" as="geometry" />
        </mxCell>
        <mxCell id="PWu2976QpV0TzekF0w1F-13" value="&lt;font style=&quot;font-size: 15px;&quot; face=&quot;Lucida Console&quot;&gt;Display Mainpage&lt;/font&gt;" style="rounded=1;whiteSpace=wrap;html=1;" parent="1" vertex="1">
          <mxGeometry x="400" y="197" width="160" height="60" as="geometry" />
        </mxCell>
        <mxCell id="PWu2976QpV0TzekF0w1F-22" style="edgeStyle=orthogonalEdgeStyle;rounded=0;orthogonalLoop=1;jettySize=auto;html=1;" parent="1" source="PWu2976QpV0TzekF0w1F-14" target="PWu2976QpV0TzekF0w1F-15" edge="1">
          <mxGeometry relative="1" as="geometry" />
        </mxCell>
        <mxCell id="PWu2976QpV0TzekF0w1F-14" value="&lt;font face=&quot;Lucida Console&quot;&gt;&lt;span style=&quot;font-size: 15px;&quot;&gt;CLick the Login Button&lt;/span&gt;&lt;/font&gt;" style="rounded=1;whiteSpace=wrap;html=1;" parent="1" vertex="1">
          <mxGeometry x="130" y="312" width="160" height="60" as="geometry" />
        </mxCell>
        <mxCell id="PWu2976QpV0TzekF0w1F-23" style="edgeStyle=orthogonalEdgeStyle;rounded=0;orthogonalLoop=1;jettySize=auto;html=1;exitX=0.5;exitY=1;exitDx=0;exitDy=0;entryX=0.5;entryY=0;entryDx=0;entryDy=0;" parent="1" source="PWu2976QpV0TzekF0w1F-15" target="PWu2976QpV0TzekF0w1F-16" edge="1">
          <mxGeometry relative="1" as="geometry" />
        </mxCell>
        <mxCell id="PWu2976QpV0TzekF0w1F-15" value="&lt;font face=&quot;Lucida Console&quot;&gt;&lt;span style=&quot;font-size: 15px;&quot;&gt;Display Login Form&lt;/span&gt;&lt;/font&gt;" style="rounded=1;whiteSpace=wrap;html=1;" parent="1" vertex="1">
          <mxGeometry x="410" y="312" width="160" height="60" as="geometry" />
        </mxCell>
        <mxCell id="PWu2976QpV0TzekF0w1F-24" style="edgeStyle=orthogonalEdgeStyle;rounded=0;orthogonalLoop=1;jettySize=auto;html=1;exitX=1;exitY=0.5;exitDx=0;exitDy=0;entryX=0.5;entryY=0;entryDx=0;entryDy=0;" parent="1" source="PWu2976QpV0TzekF0w1F-16" target="PWu2976QpV0TzekF0w1F-18" edge="1">
          <mxGeometry relative="1" as="geometry" />
        </mxCell>
        <mxCell id="PWu2976QpV0TzekF0w1F-16" value="&lt;font face=&quot;Lucida Console&quot;&gt;&lt;span style=&quot;font-size: 15px;&quot;&gt;Input Login Credentials&lt;/span&gt;&lt;/font&gt;" style="rounded=1;whiteSpace=wrap;html=1;" parent="1" vertex="1">
          <mxGeometry x="130" y="412" width="160" height="60" as="geometry" />
        </mxCell>
        <mxCell id="PWu2976QpV0TzekF0w1F-27" style="edgeStyle=orthogonalEdgeStyle;rounded=0;orthogonalLoop=1;jettySize=auto;html=1;exitX=0.5;exitY=1;exitDx=0;exitDy=0;entryX=0.5;entryY=0;entryDx=0;entryDy=0;" parent="1" source="PWu2976QpV0TzekF0w1F-17" target="PWu2976QpV0TzekF0w1F-19" edge="1">
          <mxGeometry relative="1" as="geometry" />
        </mxCell>
        <mxCell id="PWu2976QpV0TzekF0w1F-17" value="&lt;font face=&quot;Lucida Console&quot;&gt;&lt;span style=&quot;font-size: 15px;&quot;&gt;Display Admin Dashboard&lt;/span&gt;&lt;/font&gt;" style="rounded=1;whiteSpace=wrap;html=1;" parent="1" vertex="1">
          <mxGeometry x="410" y="620" width="160" height="60" as="geometry" />
        </mxCell>
        <mxCell id="PWu2976QpV0TzekF0w1F-25" style="edgeStyle=orthogonalEdgeStyle;rounded=0;orthogonalLoop=1;jettySize=auto;html=1;exitX=0.5;exitY=1;exitDx=0;exitDy=0;entryX=0.5;entryY=0;entryDx=0;entryDy=0;" parent="1" source="PWu2976QpV0TzekF0w1F-18" target="PWu2976QpV0TzekF0w1F-17" edge="1">
          <mxGeometry relative="1" as="geometry" />
        </mxCell>
        <mxCell id="PWu2976QpV0TzekF0w1F-26" style="edgeStyle=orthogonalEdgeStyle;rounded=0;orthogonalLoop=1;jettySize=auto;html=1;exitX=0;exitY=0.5;exitDx=0;exitDy=0;entryX=0.5;entryY=1;entryDx=0;entryDy=0;" parent="1" source="PWu2976QpV0TzekF0w1F-18" target="PWu2976QpV0TzekF0w1F-16" edge="1">
          <mxGeometry relative="1" as="geometry" />
        </mxCell>
        <mxCell id="PWu2976QpV0TzekF0w1F-18" value="&lt;font style=&quot;font-size: 15px;&quot; face=&quot;Lucida Console&quot;&gt;Valid?&lt;/font&gt;" style="rhombus;whiteSpace=wrap;html=1;" parent="1" vertex="1">
          <mxGeometry x="450" y="472" width="80" height="80" as="geometry" />
        </mxCell>
        <mxCell id="PWu2976QpV0TzekF0w1F-19" value="" style="ellipse;html=1;shape=endState;fillColor=#000000;strokeColor=#ff0000;" parent="1" vertex="1">
          <mxGeometry x="465" y="730" width="50" height="50" as="geometry" />
        </mxCell>
        <mxCell id="PWu2976QpV0TzekF0w1F-28" value="&lt;font style=&quot;font-size: 15px;&quot; face=&quot;Lucida Console&quot;&gt;YES&lt;/font&gt;" style="text;html=1;align=center;verticalAlign=middle;resizable=0;points=[];autosize=1;strokeColor=none;fillColor=none;" parent="1" vertex="1">
          <mxGeometry x="500" y="540" width="50" height="30" as="geometry" />
        </mxCell>
        <mxCell id="PWu2976QpV0TzekF0w1F-29" value="&lt;font style=&quot;font-size: 15px;&quot; face=&quot;Lucida Console&quot;&gt;No&lt;/font&gt;" style="text;html=1;align=center;verticalAlign=middle;resizable=0;points=[];autosize=1;strokeColor=none;fillColor=none;" parent="1" vertex="1">
          <mxGeometry x="405" y="487" width="40" height="30" as="geometry" />
        </mxCell>
        <mxCell id="PWu2976QpV0TzekF0w1F-30" value="" style="shape=internalStorage;whiteSpace=wrap;html=1;backgroundOutline=1;dx=270;dy=40;" parent="1" vertex="1">
          <mxGeometry x="1250" y="40" width="780" height="1180" as="geometry" />
        </mxCell>
        <mxCell id="PWu2976QpV0TzekF0w1F-31" value="Scholarship Admin" style="text;html=1;align=center;verticalAlign=middle;resizable=0;points=[];autosize=1;strokeColor=none;fillColor=none;fontFamily=Lucida Console;fontSize=17;" parent="1" vertex="1">
          <mxGeometry x="1290" y="50" width="200" height="30" as="geometry" />
        </mxCell>
        <mxCell id="PWu2976QpV0TzekF0w1F-32" value="Proposed System" style="text;html=1;align=center;verticalAlign=middle;resizable=0;points=[];autosize=1;strokeColor=none;fillColor=none;fontFamily=Lucida Console;fontSize=17;" parent="1" vertex="1">
          <mxGeometry x="1570" y="50" width="180" height="30" as="geometry" />
        </mxCell>
        <mxCell id="PWu2976QpV0TzekF0w1F-33" value="" style="ellipse;html=1;shape=startState;fillColor=#000000;strokeColor=#ff0000;" parent="1" vertex="1">
          <mxGeometry x="1365" y="126" width="50" height="50" as="geometry" />
        </mxCell>
        <mxCell id="PWu2976QpV0TzekF0w1F-34" value="" style="edgeStyle=orthogonalEdgeStyle;html=1;verticalAlign=bottom;endArrow=open;endSize=8;strokeColor=#ff0000;rounded=0;entryX=0.5;entryY=0;entryDx=0;entryDy=0;" parent="1" edge="1">
          <mxGeometry relative="1" as="geometry">
            <mxPoint x="1390" y="202" as="targetPoint" />
            <mxPoint x="1390" y="172" as="sourcePoint" />
          </mxGeometry>
        </mxCell>
        <mxCell id="PWu2976QpV0TzekF0w1F-35" style="edgeStyle=orthogonalEdgeStyle;rounded=0;orthogonalLoop=1;jettySize=auto;html=1;exitX=1;exitY=0.5;exitDx=0;exitDy=0;" parent="1" target="PWu2976QpV0TzekF0w1F-39" edge="1">
          <mxGeometry relative="1" as="geometry">
            <mxPoint x="1445" y="227" as="sourcePoint" />
          </mxGeometry>
        </mxCell>
        <mxCell id="PWu2976QpV0TzekF0w1F-38" style="edgeStyle=orthogonalEdgeStyle;rounded=0;orthogonalLoop=1;jettySize=auto;html=1;exitX=0.5;exitY=1;exitDx=0;exitDy=0;" parent="1" source="PWu2976QpV0TzekF0w1F-39" target="PWu2976QpV0TzekF0w1F-41" edge="1">
          <mxGeometry relative="1" as="geometry" />
        </mxCell>
        <mxCell id="PWu2976QpV0TzekF0w1F-39" value="&lt;font style=&quot;font-size: 15px;&quot; face=&quot;Lucida Console&quot;&gt;Display Set Semester&amp;nbsp;&lt;/font&gt;" style="rounded=1;whiteSpace=wrap;html=1;" parent="1" vertex="1">
          <mxGeometry x="1580" y="197" width="160" height="60" as="geometry" />
        </mxCell>
        <mxCell id="PWu2976QpV0TzekF0w1F-40" style="edgeStyle=orthogonalEdgeStyle;rounded=0;orthogonalLoop=1;jettySize=auto;html=1;" parent="1" source="PWu2976QpV0TzekF0w1F-41" target="PWu2976QpV0TzekF0w1F-43" edge="1">
          <mxGeometry relative="1" as="geometry" />
        </mxCell>
        <mxCell id="PWu2976QpV0TzekF0w1F-41" value="&lt;font face=&quot;Lucida Console&quot;&gt;&lt;span style=&quot;font-size: 15px;&quot;&gt;Input Semester Info&lt;/span&gt;&lt;/font&gt;" style="rounded=1;whiteSpace=wrap;html=1;" parent="1" vertex="1">
          <mxGeometry x="1310" y="312" width="160" height="60" as="geometry" />
        </mxCell>
        <mxCell id="PWu2976QpV0TzekF0w1F-55" style="edgeStyle=orthogonalEdgeStyle;rounded=0;orthogonalLoop=1;jettySize=auto;html=1;exitX=1;exitY=0.5;exitDx=0;exitDy=0;entryX=0;entryY=0.5;entryDx=0;entryDy=0;" parent="1" source="PWu2976QpV0TzekF0w1F-43" target="PWu2976QpV0TzekF0w1F-45" edge="1">
          <mxGeometry relative="1" as="geometry" />
        </mxCell>
        <mxCell id="PWu2976QpV0TzekF0w1F-43" value="&lt;font face=&quot;Lucida Console&quot;&gt;&lt;span style=&quot;font-size: 15px;&quot;&gt;Click Set Semester&lt;/span&gt;&lt;/font&gt;" style="rounded=1;whiteSpace=wrap;html=1;" parent="1" vertex="1">
          <mxGeometry x="1310" y="420" width="160" height="60" as="geometry" />
        </mxCell>
        <mxCell id="PWu2976QpV0TzekF0w1F-57" style="edgeStyle=orthogonalEdgeStyle;rounded=0;orthogonalLoop=1;jettySize=auto;html=1;exitX=0.5;exitY=1;exitDx=0;exitDy=0;entryX=0.5;entryY=0;entryDx=0;entryDy=0;" parent="1" source="PWu2976QpV0TzekF0w1F-45" target="PWu2976QpV0TzekF0w1F-56" edge="1">
          <mxGeometry relative="1" as="geometry" />
        </mxCell>
        <mxCell id="PWu2976QpV0TzekF0w1F-45" value="&lt;font face=&quot;Lucida Console&quot;&gt;&lt;span style=&quot;font-size: 15px;&quot;&gt;Ask for OTP&lt;/span&gt;&lt;/font&gt;" style="rounded=1;whiteSpace=wrap;html=1;" parent="1" vertex="1">
          <mxGeometry x="1590" y="420" width="160" height="60" as="geometry" />
        </mxCell>
        <mxCell id="PWu2976QpV0TzekF0w1F-63" style="edgeStyle=orthogonalEdgeStyle;rounded=0;orthogonalLoop=1;jettySize=auto;html=1;exitX=1;exitY=0.5;exitDx=0;exitDy=0;entryX=1;entryY=0.5;entryDx=0;entryDy=0;" parent="1" source="PWu2976QpV0TzekF0w1F-47" target="PWu2976QpV0TzekF0w1F-45" edge="1">
          <mxGeometry relative="1" as="geometry" />
        </mxCell>
        <mxCell id="PWu2976QpV0TzekF0w1F-47" value="&lt;font face=&quot;Lucida Console&quot;&gt;&lt;span style=&quot;font-size: 15px;&quot;&gt;Display Invalid OTP&lt;/span&gt;&lt;/font&gt;" style="rounded=1;whiteSpace=wrap;html=1;" parent="1" vertex="1">
          <mxGeometry x="1800" y="760" width="160" height="60" as="geometry" />
        </mxCell>
        <mxCell id="PWu2976QpV0TzekF0w1F-48" style="edgeStyle=orthogonalEdgeStyle;rounded=0;orthogonalLoop=1;jettySize=auto;html=1;exitX=1;exitY=0.5;exitDx=0;exitDy=0;entryX=0.5;entryY=0;entryDx=0;entryDy=0;" parent="1" source="PWu2976QpV0TzekF0w1F-50" target="PWu2976QpV0TzekF0w1F-47" edge="1">
          <mxGeometry relative="1" as="geometry" />
        </mxCell>
        <mxCell id="PWu2976QpV0TzekF0w1F-62" style="edgeStyle=orthogonalEdgeStyle;rounded=0;orthogonalLoop=1;jettySize=auto;html=1;exitX=0;exitY=0.5;exitDx=0;exitDy=0;entryX=0.5;entryY=0;entryDx=0;entryDy=0;" parent="1" source="PWu2976QpV0TzekF0w1F-50" target="PWu2976QpV0TzekF0w1F-61" edge="1">
          <mxGeometry relative="1" as="geometry" />
        </mxCell>
        <mxCell id="PWu2976QpV0TzekF0w1F-50" value="&lt;font style=&quot;font-size: 15px;&quot; face=&quot;Lucida Console&quot;&gt;Valid?&lt;/font&gt;" style="rhombus;whiteSpace=wrap;html=1;" parent="1" vertex="1">
          <mxGeometry x="1760" y="650" width="80" height="80" as="geometry" />
        </mxCell>
        <mxCell id="PWu2976QpV0TzekF0w1F-51" value="" style="ellipse;html=1;shape=endState;fillColor=#000000;strokeColor=#ff0000;" parent="1" vertex="1">
          <mxGeometry x="1655" y="1080" width="50" height="50" as="geometry" />
        </mxCell>
        <mxCell id="PWu2976QpV0TzekF0w1F-52" value="&lt;font style=&quot;font-size: 15px;&quot; face=&quot;Lucida Console&quot;&gt;YES&lt;/font&gt;" style="text;html=1;align=center;verticalAlign=middle;resizable=0;points=[];autosize=1;strokeColor=none;fillColor=none;" parent="1" vertex="1">
          <mxGeometry x="1710" y="665" width="50" height="30" as="geometry" />
        </mxCell>
        <mxCell id="PWu2976QpV0TzekF0w1F-53" value="&lt;font face=&quot;Lucida Console&quot;&gt;&lt;span style=&quot;font-size: 15px;&quot;&gt;NO&lt;/span&gt;&lt;/font&gt;" style="text;html=1;align=center;verticalAlign=middle;resizable=0;points=[];autosize=1;strokeColor=none;fillColor=none;" parent="1" vertex="1">
          <mxGeometry x="1845" y="660" width="40" height="30" as="geometry" />
        </mxCell>
        <mxCell id="PWu2976QpV0TzekF0w1F-54" value="&lt;font style=&quot;font-size: 15px;&quot; face=&quot;Lucida Console&quot;&gt;Click Set Semester Button&lt;/font&gt;" style="rounded=1;whiteSpace=wrap;html=1;" parent="1" vertex="1">
          <mxGeometry x="1310" y="202" width="160" height="60" as="geometry" />
        </mxCell>
        <mxCell id="PWu2976QpV0TzekF0w1F-59" style="edgeStyle=orthogonalEdgeStyle;rounded=0;orthogonalLoop=1;jettySize=auto;html=1;exitX=0;exitY=0.5;exitDx=0;exitDy=0;" parent="1" source="PWu2976QpV0TzekF0w1F-56" target="PWu2976QpV0TzekF0w1F-58" edge="1">
          <mxGeometry relative="1" as="geometry" />
        </mxCell>
        <mxCell id="PWu2976QpV0TzekF0w1F-56" value="&lt;font face=&quot;Lucida Console&quot;&gt;&lt;span style=&quot;font-size: 15px;&quot;&gt;Send OTP in Email&lt;/span&gt;&lt;/font&gt;" style="rounded=1;whiteSpace=wrap;html=1;" parent="1" vertex="1">
          <mxGeometry x="1590" y="540" width="160" height="60" as="geometry" />
        </mxCell>
        <mxCell id="PWu2976QpV0TzekF0w1F-60" style="edgeStyle=orthogonalEdgeStyle;rounded=0;orthogonalLoop=1;jettySize=auto;html=1;exitX=0.5;exitY=1;exitDx=0;exitDy=0;entryX=0.5;entryY=0;entryDx=0;entryDy=0;" parent="1" source="PWu2976QpV0TzekF0w1F-58" target="PWu2976QpV0TzekF0w1F-50" edge="1">
          <mxGeometry relative="1" as="geometry" />
        </mxCell>
        <mxCell id="PWu2976QpV0TzekF0w1F-58" value="&lt;font face=&quot;Lucida Console&quot;&gt;&lt;span style=&quot;font-size: 15px;&quot;&gt;Input OTP&lt;/span&gt;&lt;/font&gt;" style="rounded=1;whiteSpace=wrap;html=1;" parent="1" vertex="1">
          <mxGeometry x="1310" y="540" width="160" height="60" as="geometry" />
        </mxCell>
        <mxCell id="PWu2976QpV0TzekF0w1F-65" style="edgeStyle=orthogonalEdgeStyle;rounded=0;orthogonalLoop=1;jettySize=auto;html=1;exitX=0.5;exitY=1;exitDx=0;exitDy=0;" parent="1" source="PWu2976QpV0TzekF0w1F-61" target="PWu2976QpV0TzekF0w1F-64" edge="1">
          <mxGeometry relative="1" as="geometry" />
        </mxCell>
        <mxCell id="PWu2976QpV0TzekF0w1F-61" value="&lt;font face=&quot;Lucida Console&quot;&gt;&lt;span style=&quot;font-size: 15px;&quot;&gt;Display Set Semester Successsfully&lt;/span&gt;&lt;/font&gt;" style="rounded=1;whiteSpace=wrap;html=1;" parent="1" vertex="1">
          <mxGeometry x="1580" y="760" width="200" height="60" as="geometry" />
        </mxCell>
        <mxCell id="PWu2976QpV0TzekF0w1F-67" style="edgeStyle=orthogonalEdgeStyle;rounded=0;orthogonalLoop=1;jettySize=auto;html=1;exitX=0.5;exitY=1;exitDx=0;exitDy=0;entryX=0.5;entryY=0;entryDx=0;entryDy=0;" parent="1" source="PWu2976QpV0TzekF0w1F-64" target="PWu2976QpV0TzekF0w1F-66" edge="1">
          <mxGeometry relative="1" as="geometry" />
        </mxCell>
        <mxCell id="PWu2976QpV0TzekF0w1F-64" value="&lt;font face=&quot;Lucida Console&quot;&gt;&lt;span style=&quot;font-size: 15px;&quot;&gt;Saved in Semester Table&lt;/span&gt;&lt;/font&gt;" style="rounded=1;whiteSpace=wrap;html=1;" parent="1" vertex="1">
          <mxGeometry x="1580" y="860" width="200" height="60" as="geometry" />
        </mxCell>
        <mxCell id="PWu2976QpV0TzekF0w1F-68" style="edgeStyle=orthogonalEdgeStyle;rounded=0;orthogonalLoop=1;jettySize=auto;html=1;exitX=0.5;exitY=1;exitDx=0;exitDy=0;entryX=0.5;entryY=0;entryDx=0;entryDy=0;" parent="1" source="PWu2976QpV0TzekF0w1F-66" target="PWu2976QpV0TzekF0w1F-51" edge="1">
          <mxGeometry relative="1" as="geometry" />
        </mxCell>
        <mxCell id="PWu2976QpV0TzekF0w1F-66" value="&lt;font face=&quot;Lucida Console&quot;&gt;&lt;span style=&quot;font-size: 15px;&quot;&gt;Set as currentSem Id&lt;/span&gt;&lt;/font&gt;" style="rounded=1;whiteSpace=wrap;html=1;" parent="1" vertex="1">
          <mxGeometry x="1580" y="960" width="200" height="60" as="geometry" />
        </mxCell>
        <mxCell id="PWu2976QpV0TzekF0w1F-69" value="&lt;font style=&quot;font-size: 15px;&quot; face=&quot;Lucida Console&quot;&gt;END&lt;/font&gt;" style="text;html=1;align=center;verticalAlign=middle;resizable=0;points=[];autosize=1;strokeColor=none;fillColor=none;" parent="1" vertex="1">
          <mxGeometry x="1655" y="1140" width="50" height="30" as="geometry" />
        </mxCell>
        <mxCell id="PWu2976QpV0TzekF0w1F-70" value="&lt;font style=&quot;font-size: 15px;&quot; face=&quot;Lucida Console&quot;&gt;END&lt;/font&gt;" style="text;html=1;align=center;verticalAlign=middle;resizable=0;points=[];autosize=1;strokeColor=none;fillColor=none;" parent="1" vertex="1">
          <mxGeometry x="465" y="790" width="50" height="30" as="geometry" />
        </mxCell>
        <mxCell id="PWu2976QpV0TzekF0w1F-71" value="" style="shape=internalStorage;whiteSpace=wrap;html=1;backgroundOutline=1;dx=270;dy=40;" parent="1" vertex="1">
          <mxGeometry x="2440" y="80" width="540" height="1100" as="geometry" />
        </mxCell>
        <mxCell id="PWu2976QpV0TzekF0w1F-72" value="Scholarship Admin" style="text;html=1;align=center;verticalAlign=middle;resizable=0;points=[];autosize=1;strokeColor=none;fillColor=none;fontFamily=Lucida Console;fontSize=17;" parent="1" vertex="1">
          <mxGeometry x="2480" y="90" width="200" height="30" as="geometry" />
        </mxCell>
        <mxCell id="PWu2976QpV0TzekF0w1F-73" value="Proposed System" style="text;html=1;align=center;verticalAlign=middle;resizable=0;points=[];autosize=1;strokeColor=none;fillColor=none;fontFamily=Lucida Console;fontSize=17;" parent="1" vertex="1">
          <mxGeometry x="2760" y="90" width="180" height="30" as="geometry" />
        </mxCell>
        <mxCell id="PWu2976QpV0TzekF0w1F-74" value="" style="ellipse;html=1;shape=startState;fillColor=#000000;strokeColor=#ff0000;" parent="1" vertex="1">
          <mxGeometry x="2555" y="166" width="50" height="50" as="geometry" />
        </mxCell>
        <mxCell id="PWu2976QpV0TzekF0w1F-75" value="" style="edgeStyle=orthogonalEdgeStyle;html=1;verticalAlign=bottom;endArrow=open;endSize=8;strokeColor=#ff0000;rounded=0;entryX=0.5;entryY=0;entryDx=0;entryDy=0;" parent="1" edge="1">
          <mxGeometry relative="1" as="geometry">
            <mxPoint x="2580" y="242" as="targetPoint" />
            <mxPoint x="2580" y="212" as="sourcePoint" />
          </mxGeometry>
        </mxCell>
        <mxCell id="PWu2976QpV0TzekF0w1F-76" style="edgeStyle=orthogonalEdgeStyle;rounded=0;orthogonalLoop=1;jettySize=auto;html=1;exitX=1;exitY=0.5;exitDx=0;exitDy=0;" parent="1" target="PWu2976QpV0TzekF0w1F-80" edge="1">
          <mxGeometry relative="1" as="geometry">
            <mxPoint x="2635" y="267" as="sourcePoint" />
          </mxGeometry>
        </mxCell>
        <mxCell id="PWu2976QpV0TzekF0w1F-79" style="edgeStyle=orthogonalEdgeStyle;rounded=0;orthogonalLoop=1;jettySize=auto;html=1;exitX=0.5;exitY=1;exitDx=0;exitDy=0;" parent="1" source="PWu2976QpV0TzekF0w1F-80" target="PWu2976QpV0TzekF0w1F-82" edge="1">
          <mxGeometry relative="1" as="geometry" />
        </mxCell>
        <mxCell id="PWu2976QpV0TzekF0w1F-80" value="&lt;font style=&quot;font-size: 15px;&quot; face=&quot;Lucida Console&quot;&gt;Display Create Account&lt;/font&gt;" style="rounded=1;whiteSpace=wrap;html=1;" parent="1" vertex="1">
          <mxGeometry x="2770" y="237" width="160" height="60" as="geometry" />
        </mxCell>
        <mxCell id="PWu2976QpV0TzekF0w1F-98" style="edgeStyle=orthogonalEdgeStyle;rounded=0;orthogonalLoop=1;jettySize=auto;html=1;exitX=0.5;exitY=1;exitDx=0;exitDy=0;" parent="1" source="PWu2976QpV0TzekF0w1F-82" target="PWu2976QpV0TzekF0w1F-86" edge="1">
          <mxGeometry relative="1" as="geometry" />
        </mxCell>
        <mxCell id="PWu2976QpV0TzekF0w1F-82" value="&lt;font face=&quot;Lucida Console&quot;&gt;&lt;span style=&quot;font-size: 15px;&quot;&gt;Input accounts Info(name,email,role)&lt;/span&gt;&lt;/font&gt;" style="rounded=1;whiteSpace=wrap;html=1;" parent="1" vertex="1">
          <mxGeometry x="2470" y="352" width="220" height="60" as="geometry" />
        </mxCell>
        <mxCell id="PWu2976QpV0TzekF0w1F-99" style="edgeStyle=orthogonalEdgeStyle;rounded=0;orthogonalLoop=1;jettySize=auto;html=1;" parent="1" source="PWu2976QpV0TzekF0w1F-86" target="PWu2976QpV0TzekF0w1F-97" edge="1">
          <mxGeometry relative="1" as="geometry" />
        </mxCell>
        <mxCell id="PWu2976QpV0TzekF0w1F-86" value="&lt;font face=&quot;Lucida Console&quot;&gt;&lt;span style=&quot;font-size: 15px;&quot;&gt;Click Create Account&lt;/span&gt;&lt;/font&gt;" style="rounded=1;whiteSpace=wrap;html=1;" parent="1" vertex="1">
          <mxGeometry x="2500" y="460" width="160" height="60" as="geometry" />
        </mxCell>
        <mxCell id="PWu2976QpV0TzekF0w1F-87" style="edgeStyle=orthogonalEdgeStyle;rounded=0;orthogonalLoop=1;jettySize=auto;html=1;exitX=0.5;exitY=1;exitDx=0;exitDy=0;entryX=0.5;entryY=0;entryDx=0;entryDy=0;" parent="1" source="PWu2976QpV0TzekF0w1F-88" target="PWu2976QpV0TzekF0w1F-92" edge="1">
          <mxGeometry relative="1" as="geometry" />
        </mxCell>
        <mxCell id="PWu2976QpV0TzekF0w1F-88" value="&lt;font face=&quot;Lucida Console&quot;&gt;&lt;span style=&quot;font-size: 15px;&quot;&gt;Display Account Created Successfully&lt;/span&gt;&lt;/font&gt;" style="rounded=1;whiteSpace=wrap;html=1;" parent="1" vertex="1">
          <mxGeometry x="2770" y="900" width="160" height="60" as="geometry" />
        </mxCell>
        <mxCell id="PWu2976QpV0TzekF0w1F-92" value="" style="ellipse;html=1;shape=endState;fillColor=#000000;strokeColor=#ff0000;" parent="1" vertex="1">
          <mxGeometry x="2825" y="1040" width="50" height="50" as="geometry" />
        </mxCell>
        <mxCell id="PWu2976QpV0TzekF0w1F-95" value="&lt;font style=&quot;font-size: 15px;&quot; face=&quot;Lucida Console&quot;&gt;END&lt;/font&gt;" style="text;html=1;align=center;verticalAlign=middle;resizable=0;points=[];autosize=1;strokeColor=none;fillColor=none;" parent="1" vertex="1">
          <mxGeometry x="2825" y="1100" width="50" height="30" as="geometry" />
        </mxCell>
        <mxCell id="PWu2976QpV0TzekF0w1F-96" value="&lt;font style=&quot;font-size: 15px;&quot; face=&quot;Lucida Console&quot;&gt;Click Create Account Button&lt;/font&gt;" style="rounded=1;whiteSpace=wrap;html=1;" parent="1" vertex="1">
          <mxGeometry x="2500" y="237" width="160" height="60" as="geometry" />
        </mxCell>
        <mxCell id="PWu2976QpV0TzekF0w1F-102" style="edgeStyle=orthogonalEdgeStyle;rounded=0;orthogonalLoop=1;jettySize=auto;html=1;exitX=0.5;exitY=1;exitDx=0;exitDy=0;" parent="1" source="PWu2976QpV0TzekF0w1F-97" target="PWu2976QpV0TzekF0w1F-100" edge="1">
          <mxGeometry relative="1" as="geometry" />
        </mxCell>
        <mxCell id="PWu2976QpV0TzekF0w1F-97" value="&lt;font face=&quot;Lucida Console&quot;&gt;&lt;span style=&quot;font-size: 15px;&quot;&gt;Generate Account Credentials based from the given info&lt;/span&gt;&lt;/font&gt;" style="rounded=1;whiteSpace=wrap;html=1;" parent="1" vertex="1">
          <mxGeometry x="2750" y="456" width="200" height="68" as="geometry" />
        </mxCell>
        <mxCell id="PWu2976QpV0TzekF0w1F-104" style="edgeStyle=orthogonalEdgeStyle;rounded=0;orthogonalLoop=1;jettySize=auto;html=1;exitX=0.5;exitY=1;exitDx=0;exitDy=0;" parent="1" source="PWu2976QpV0TzekF0w1F-100" target="PWu2976QpV0TzekF0w1F-103" edge="1">
          <mxGeometry relative="1" as="geometry" />
        </mxCell>
        <mxCell id="PWu2976QpV0TzekF0w1F-100" value="&lt;font face=&quot;Lucida Console&quot;&gt;&lt;span style=&quot;font-size: 15px;&quot;&gt;Saved Account Credentials to Users Table&lt;/span&gt;&lt;/font&gt;" style="rounded=1;whiteSpace=wrap;html=1;" parent="1" vertex="1">
          <mxGeometry x="2750" y="570" width="200" height="68" as="geometry" />
        </mxCell>
        <mxCell id="PWu2976QpV0TzekF0w1F-106" style="edgeStyle=orthogonalEdgeStyle;rounded=0;orthogonalLoop=1;jettySize=auto;html=1;exitX=0.5;exitY=1;exitDx=0;exitDy=0;entryX=0.5;entryY=0;entryDx=0;entryDy=0;" parent="1" source="PWu2976QpV0TzekF0w1F-103" target="PWu2976QpV0TzekF0w1F-105" edge="1">
          <mxGeometry relative="1" as="geometry" />
        </mxCell>
        <mxCell id="PWu2976QpV0TzekF0w1F-103" value="&lt;font face=&quot;Lucida Console&quot;&gt;&lt;span style=&quot;font-size: 15px;&quot;&gt;Saved Account Info to what role table&lt;/span&gt;&lt;/font&gt;" style="rounded=1;whiteSpace=wrap;html=1;" parent="1" vertex="1">
          <mxGeometry x="2750" y="680" width="200" height="68" as="geometry" />
        </mxCell>
        <mxCell id="PWu2976QpV0TzekF0w1F-107" style="edgeStyle=orthogonalEdgeStyle;rounded=0;orthogonalLoop=1;jettySize=auto;html=1;exitX=0.5;exitY=1;exitDx=0;exitDy=0;entryX=0.5;entryY=0;entryDx=0;entryDy=0;" parent="1" source="PWu2976QpV0TzekF0w1F-105" target="PWu2976QpV0TzekF0w1F-88" edge="1">
          <mxGeometry relative="1" as="geometry" />
        </mxCell>
        <mxCell id="PWu2976QpV0TzekF0w1F-105" value="&lt;font face=&quot;Lucida Console&quot;&gt;&lt;span style=&quot;font-size: 15px;&quot;&gt;Send Account Credentials to Email&lt;/span&gt;&lt;/font&gt;" style="rounded=1;whiteSpace=wrap;html=1;" parent="1" vertex="1">
          <mxGeometry x="2750" y="782" width="200" height="68" as="geometry" />
        </mxCell>
        <mxCell id="PWu2976QpV0TzekF0w1F-108" value="" style="shape=internalStorage;whiteSpace=wrap;html=1;backgroundOutline=1;dx=270;dy=40;" parent="1" vertex="1">
          <mxGeometry x="3360" y="120" width="540" height="660" as="geometry" />
        </mxCell>
        <mxCell id="PWu2976QpV0TzekF0w1F-109" value="Scholarship Admin" style="text;html=1;align=center;verticalAlign=middle;resizable=0;points=[];autosize=1;strokeColor=none;fillColor=none;fontFamily=Lucida Console;fontSize=17;" parent="1" vertex="1">
          <mxGeometry x="3405" y="126" width="200" height="30" as="geometry" />
        </mxCell>
        <mxCell id="PWu2976QpV0TzekF0w1F-110" value="Proposed System" style="text;html=1;align=center;verticalAlign=middle;resizable=0;points=[];autosize=1;strokeColor=none;fillColor=none;fontFamily=Lucida Console;fontSize=17;" parent="1" vertex="1">
          <mxGeometry x="3685" y="126" width="180" height="30" as="geometry" />
        </mxCell>
        <mxCell id="PWu2976QpV0TzekF0w1F-111" value="" style="ellipse;html=1;shape=startState;fillColor=#000000;strokeColor=#ff0000;" parent="1" vertex="1">
          <mxGeometry x="3475" y="156" width="50" height="50" as="geometry" />
        </mxCell>
        <mxCell id="PWu2976QpV0TzekF0w1F-112" value="" style="edgeStyle=orthogonalEdgeStyle;html=1;verticalAlign=bottom;endArrow=open;endSize=8;strokeColor=#ff0000;rounded=0;entryX=0.5;entryY=0;entryDx=0;entryDy=0;" parent="1" edge="1">
          <mxGeometry relative="1" as="geometry">
            <mxPoint x="3500" y="232" as="targetPoint" />
            <mxPoint x="3500" y="202" as="sourcePoint" />
          </mxGeometry>
        </mxCell>
        <mxCell id="PWu2976QpV0TzekF0w1F-113" style="edgeStyle=orthogonalEdgeStyle;rounded=0;orthogonalLoop=1;jettySize=auto;html=1;exitX=1;exitY=0.5;exitDx=0;exitDy=0;" parent="1" target="PWu2976QpV0TzekF0w1F-115" edge="1">
          <mxGeometry relative="1" as="geometry">
            <mxPoint x="3555" y="257" as="sourcePoint" />
          </mxGeometry>
        </mxCell>
        <mxCell id="PWu2976QpV0TzekF0w1F-114" style="edgeStyle=orthogonalEdgeStyle;rounded=0;orthogonalLoop=1;jettySize=auto;html=1;exitX=0.5;exitY=1;exitDx=0;exitDy=0;" parent="1" source="PWu2976QpV0TzekF0w1F-115" target="PWu2976QpV0TzekF0w1F-117" edge="1">
          <mxGeometry relative="1" as="geometry" />
        </mxCell>
        <mxCell id="PWu2976QpV0TzekF0w1F-115" value="&lt;font style=&quot;font-size: 15px;&quot; face=&quot;Lucida Console&quot;&gt;Display Change Gratis Hours Menu&lt;/font&gt;" style="rounded=1;whiteSpace=wrap;html=1;" parent="1" vertex="1">
          <mxGeometry x="3690" y="227" width="160" height="60" as="geometry" />
        </mxCell>
        <mxCell id="PWu2976QpV0TzekF0w1F-133" style="edgeStyle=orthogonalEdgeStyle;rounded=0;orthogonalLoop=1;jettySize=auto;html=1;exitX=1;exitY=0.5;exitDx=0;exitDy=0;entryX=0;entryY=0.5;entryDx=0;entryDy=0;" parent="1" source="PWu2976QpV0TzekF0w1F-135" target="PWu2976QpV0TzekF0w1F-126" edge="1">
          <mxGeometry relative="1" as="geometry" />
        </mxCell>
        <mxCell id="PWu2976QpV0TzekF0w1F-136" style="edgeStyle=orthogonalEdgeStyle;rounded=0;orthogonalLoop=1;jettySize=auto;html=1;exitX=0.5;exitY=1;exitDx=0;exitDy=0;" parent="1" source="PWu2976QpV0TzekF0w1F-117" target="PWu2976QpV0TzekF0w1F-135" edge="1">
          <mxGeometry relative="1" as="geometry" />
        </mxCell>
        <mxCell id="PWu2976QpV0TzekF0w1F-117" value="&lt;font face=&quot;Lucida Console&quot;&gt;&lt;span style=&quot;font-size: 15px;&quot;&gt;Input the number of Hours&lt;/span&gt;&lt;/font&gt;" style="rounded=1;whiteSpace=wrap;html=1;" parent="1" vertex="1">
          <mxGeometry x="3405" y="342" width="190" height="60" as="geometry" />
        </mxCell>
        <mxCell id="PWu2976QpV0TzekF0w1F-122" value="" style="ellipse;html=1;shape=endState;fillColor=#000000;strokeColor=#ff0000;" parent="1" vertex="1">
          <mxGeometry x="3745" y="670" width="50" height="50" as="geometry" />
        </mxCell>
        <mxCell id="PWu2976QpV0TzekF0w1F-123" value="&lt;font style=&quot;font-size: 15px;&quot; face=&quot;Lucida Console&quot;&gt;END&lt;/font&gt;" style="text;html=1;align=center;verticalAlign=middle;resizable=0;points=[];autosize=1;strokeColor=none;fillColor=none;" parent="1" vertex="1">
          <mxGeometry x="3745" y="730" width="50" height="30" as="geometry" />
        </mxCell>
        <mxCell id="PWu2976QpV0TzekF0w1F-124" value="&lt;font style=&quot;font-size: 15px;&quot; face=&quot;Lucida Console&quot;&gt;Click Change Gratis Hours&lt;/font&gt;" style="rounded=1;whiteSpace=wrap;html=1;" parent="1" vertex="1">
          <mxGeometry x="3420" y="227" width="160" height="60" as="geometry" />
        </mxCell>
        <mxCell id="PWu2976QpV0TzekF0w1F-125" style="edgeStyle=orthogonalEdgeStyle;rounded=0;orthogonalLoop=1;jettySize=auto;html=1;exitX=0.5;exitY=1;exitDx=0;exitDy=0;" parent="1" source="PWu2976QpV0TzekF0w1F-126" target="PWu2976QpV0TzekF0w1F-128" edge="1">
          <mxGeometry relative="1" as="geometry" />
        </mxCell>
        <mxCell id="PWu2976QpV0TzekF0w1F-126" value="&lt;font face=&quot;Lucida Console&quot;&gt;&lt;span style=&quot;font-size: 15px;&quot;&gt;Set Needed Hours&lt;/span&gt;&lt;/font&gt;" style="rounded=1;whiteSpace=wrap;html=1;" parent="1" vertex="1">
          <mxGeometry x="3670" y="445" width="200" height="68" as="geometry" />
        </mxCell>
        <mxCell id="PWu2976QpV0TzekF0w1F-127" style="edgeStyle=orthogonalEdgeStyle;rounded=0;orthogonalLoop=1;jettySize=auto;html=1;exitX=0.5;exitY=1;exitDx=0;exitDy=0;" parent="1" source="PWu2976QpV0TzekF0w1F-128" edge="1">
          <mxGeometry relative="1" as="geometry">
            <mxPoint x="3770" y="670" as="targetPoint" />
          </mxGeometry>
        </mxCell>
        <mxCell id="PWu2976QpV0TzekF0w1F-128" value="&lt;font face=&quot;Lucida Console&quot;&gt;&lt;span style=&quot;font-size: 15px;&quot;&gt;Saved in system the needed Hours&lt;/span&gt;&lt;/font&gt;" style="rounded=1;whiteSpace=wrap;html=1;" parent="1" vertex="1">
          <mxGeometry x="3670" y="560" width="200" height="68" as="geometry" />
        </mxCell>
        <mxCell id="PWu2976QpV0TzekF0w1F-135" value="&lt;font face=&quot;Lucida Console&quot;&gt;&lt;span style=&quot;font-size: 15px;&quot;&gt;Click Update Button&lt;/span&gt;&lt;/font&gt;" style="rounded=1;whiteSpace=wrap;html=1;" parent="1" vertex="1">
          <mxGeometry x="3405" y="449" width="190" height="60" as="geometry" />
        </mxCell>
        <mxCell id="PWu2976QpV0TzekF0w1F-137" value="" style="shape=internalStorage;whiteSpace=wrap;html=1;backgroundOutline=1;dx=270;dy=40;" parent="1" vertex="1">
          <mxGeometry x="4540" y="112" width="540" height="660" as="geometry" />
        </mxCell>
        <mxCell id="PWu2976QpV0TzekF0w1F-138" value="Scholarship Admin" style="text;html=1;align=center;verticalAlign=middle;resizable=0;points=[];autosize=1;strokeColor=none;fillColor=none;fontFamily=Lucida Console;fontSize=17;" parent="1" vertex="1">
          <mxGeometry x="4585" y="118" width="200" height="30" as="geometry" />
        </mxCell>
        <mxCell id="PWu2976QpV0TzekF0w1F-139" value="Proposed System" style="text;html=1;align=center;verticalAlign=middle;resizable=0;points=[];autosize=1;strokeColor=none;fillColor=none;fontFamily=Lucida Console;fontSize=17;" parent="1" vertex="1">
          <mxGeometry x="4865" y="118" width="180" height="30" as="geometry" />
        </mxCell>
        <mxCell id="PWu2976QpV0TzekF0w1F-140" value="" style="ellipse;html=1;shape=startState;fillColor=#000000;strokeColor=#ff0000;" parent="1" vertex="1">
          <mxGeometry x="4655" y="177" width="50" height="50" as="geometry" />
        </mxCell>
        <mxCell id="PWu2976QpV0TzekF0w1F-141" value="" style="edgeStyle=orthogonalEdgeStyle;html=1;verticalAlign=bottom;endArrow=open;endSize=8;strokeColor=#ff0000;rounded=0;entryX=0.5;entryY=0;entryDx=0;entryDy=0;" parent="1" edge="1">
          <mxGeometry relative="1" as="geometry">
            <mxPoint x="4680" y="252" as="targetPoint" />
            <mxPoint x="4680" y="222" as="sourcePoint" />
          </mxGeometry>
        </mxCell>
        <mxCell id="PWu2976QpV0TzekF0w1F-142" style="edgeStyle=orthogonalEdgeStyle;rounded=0;orthogonalLoop=1;jettySize=auto;html=1;exitX=1;exitY=0.5;exitDx=0;exitDy=0;" parent="1" target="PWu2976QpV0TzekF0w1F-144" edge="1">
          <mxGeometry relative="1" as="geometry">
            <mxPoint x="4735" y="277" as="sourcePoint" />
          </mxGeometry>
        </mxCell>
        <mxCell id="PWu2976QpV0TzekF0w1F-143" style="edgeStyle=orthogonalEdgeStyle;rounded=0;orthogonalLoop=1;jettySize=auto;html=1;exitX=0.5;exitY=1;exitDx=0;exitDy=0;" parent="1" source="PWu2976QpV0TzekF0w1F-144" target="PWu2976QpV0TzekF0w1F-147" edge="1">
          <mxGeometry relative="1" as="geometry" />
        </mxCell>
        <mxCell id="PWu2976QpV0TzekF0w1F-144" value="&lt;font style=&quot;font-size: 15px;&quot; face=&quot;Lucida Console&quot;&gt;Display the Current Application Date&lt;/font&gt;" style="rounded=1;whiteSpace=wrap;html=1;" parent="1" vertex="1">
          <mxGeometry x="4860" y="247" width="190" height="60" as="geometry" />
        </mxCell>
        <mxCell id="PWu2976QpV0TzekF0w1F-145" style="edgeStyle=orthogonalEdgeStyle;rounded=0;orthogonalLoop=1;jettySize=auto;html=1;exitX=1;exitY=0.5;exitDx=0;exitDy=0;entryX=0;entryY=0.5;entryDx=0;entryDy=0;" parent="1" source="PWu2976QpV0TzekF0w1F-147" target="PWu2976QpV0TzekF0w1F-152" edge="1">
          <mxGeometry relative="1" as="geometry">
            <mxPoint x="4775" y="499" as="sourcePoint" />
          </mxGeometry>
        </mxCell>
        <mxCell id="PWu2976QpV0TzekF0w1F-147" value="&lt;font face=&quot;Lucida Console&quot;&gt;&lt;span style=&quot;font-size: 15px;&quot;&gt;Click Change Application Date&lt;/span&gt;&lt;/font&gt;" style="rounded=1;whiteSpace=wrap;html=1;" parent="1" vertex="1">
          <mxGeometry x="4585" y="362" width="190" height="60" as="geometry" />
        </mxCell>
        <mxCell id="PWu2976QpV0TzekF0w1F-148" value="" style="ellipse;html=1;shape=endState;fillColor=#000000;strokeColor=#ff0000;" parent="1" vertex="1">
          <mxGeometry x="4925" y="680" width="50" height="50" as="geometry" />
        </mxCell>
        <mxCell id="PWu2976QpV0TzekF0w1F-149" value="&lt;font style=&quot;font-size: 15px;&quot; face=&quot;Lucida Console&quot;&gt;END&lt;/font&gt;" style="text;html=1;align=center;verticalAlign=middle;resizable=0;points=[];autosize=1;strokeColor=none;fillColor=none;" parent="1" vertex="1">
          <mxGeometry x="4925" y="730" width="50" height="30" as="geometry" />
        </mxCell>
        <mxCell id="PWu2976QpV0TzekF0w1F-150" value="&lt;font style=&quot;font-size: 15px;&quot; face=&quot;Lucida Console&quot;&gt;Click Application Date&lt;/font&gt;" style="rounded=1;whiteSpace=wrap;html=1;" parent="1" vertex="1">
          <mxGeometry x="4600" y="247" width="160" height="60" as="geometry" />
        </mxCell>
        <mxCell id="PWu2976QpV0TzekF0w1F-151" style="edgeStyle=orthogonalEdgeStyle;rounded=0;orthogonalLoop=1;jettySize=auto;html=1;exitX=0.5;exitY=1;exitDx=0;exitDy=0;" parent="1" source="PWu2976QpV0TzekF0w1F-152" target="PWu2976QpV0TzekF0w1F-154" edge="1">
          <mxGeometry relative="1" as="geometry" />
        </mxCell>
        <mxCell id="PWu2976QpV0TzekF0w1F-152" value="&lt;font face=&quot;Lucida Console&quot;&gt;&lt;span style=&quot;font-size: 15px;&quot;&gt;Display Change Application Date Menu&lt;/span&gt;&lt;/font&gt;" style="rounded=1;whiteSpace=wrap;html=1;" parent="1" vertex="1">
          <mxGeometry x="4860" y="358" width="200" height="68" as="geometry" />
        </mxCell>
        <mxCell id="PWu2976QpV0TzekF0w1F-157" style="edgeStyle=orthogonalEdgeStyle;rounded=0;orthogonalLoop=1;jettySize=auto;html=1;exitX=1;exitY=0.5;exitDx=0;exitDy=0;entryX=0;entryY=0.5;entryDx=0;entryDy=0;" parent="1" source="PWu2976QpV0TzekF0w1F-154" target="PWu2976QpV0TzekF0w1F-156" edge="1">
          <mxGeometry relative="1" as="geometry" />
        </mxCell>
        <mxCell id="PWu2976QpV0TzekF0w1F-154" value="&lt;font face=&quot;Lucida Console&quot;&gt;&lt;span style=&quot;font-size: 15px;&quot;&gt;Input the Start Date &amp;amp; End Date&lt;/span&gt;&lt;/font&gt;" style="rounded=1;whiteSpace=wrap;html=1;" parent="1" vertex="1">
          <mxGeometry x="4580" y="472" width="200" height="68" as="geometry" />
        </mxCell>
        <mxCell id="PWu2976QpV0TzekF0w1F-159" style="edgeStyle=orthogonalEdgeStyle;rounded=0;orthogonalLoop=1;jettySize=auto;html=1;exitX=0.5;exitY=1;exitDx=0;exitDy=0;" parent="1" source="PWu2976QpV0TzekF0w1F-156" target="PWu2976QpV0TzekF0w1F-158" edge="1">
          <mxGeometry relative="1" as="geometry" />
        </mxCell>
        <mxCell id="PWu2976QpV0TzekF0w1F-156" value="&lt;font face=&quot;Lucida Console&quot;&gt;&lt;span style=&quot;font-size: 15px;&quot;&gt;Set the Application Date&lt;/span&gt;&lt;/font&gt;" style="rounded=1;whiteSpace=wrap;html=1;" parent="1" vertex="1">
          <mxGeometry x="4850" y="472" width="200" height="68" as="geometry" />
        </mxCell>
        <mxCell id="PWu2976QpV0TzekF0w1F-160" style="edgeStyle=orthogonalEdgeStyle;rounded=0;orthogonalLoop=1;jettySize=auto;html=1;exitX=0.5;exitY=1;exitDx=0;exitDy=0;entryX=0.5;entryY=0;entryDx=0;entryDy=0;" parent="1" source="PWu2976QpV0TzekF0w1F-158" target="PWu2976QpV0TzekF0w1F-148" edge="1">
          <mxGeometry relative="1" as="geometry" />
        </mxCell>
        <mxCell id="PWu2976QpV0TzekF0w1F-158" value="&lt;font face=&quot;Lucida Console&quot;&gt;&lt;span style=&quot;font-size: 15px;&quot;&gt;Display Set Successfully&lt;/span&gt;&lt;/font&gt;" style="rounded=1;whiteSpace=wrap;html=1;" parent="1" vertex="1">
          <mxGeometry x="4850" y="582" width="200" height="68" as="geometry" />
        </mxCell>
        <mxCell id="PWu2976QpV0TzekF0w1F-161" value="" style="shape=internalStorage;whiteSpace=wrap;html=1;backgroundOutline=1;dx=270;dy=40;" parent="1" vertex="1">
          <mxGeometry x="5760" y="112" width="540" height="660" as="geometry" />
        </mxCell>
        <mxCell id="PWu2976QpV0TzekF0w1F-162" value="Scholarship Admin" style="text;html=1;align=center;verticalAlign=middle;resizable=0;points=[];autosize=1;strokeColor=none;fillColor=none;fontFamily=Lucida Console;fontSize=17;" parent="1" vertex="1">
          <mxGeometry x="5805" y="118" width="200" height="30" as="geometry" />
        </mxCell>
        <mxCell id="PWu2976QpV0TzekF0w1F-163" value="Proposed System" style="text;html=1;align=center;verticalAlign=middle;resizable=0;points=[];autosize=1;strokeColor=none;fillColor=none;fontFamily=Lucida Console;fontSize=17;" parent="1" vertex="1">
          <mxGeometry x="6085" y="118" width="180" height="30" as="geometry" />
        </mxCell>
        <mxCell id="PWu2976QpV0TzekF0w1F-164" value="" style="ellipse;html=1;shape=startState;fillColor=#000000;strokeColor=#ff0000;" parent="1" vertex="1">
          <mxGeometry x="5875" y="177" width="50" height="50" as="geometry" />
        </mxCell>
        <mxCell id="PWu2976QpV0TzekF0w1F-165" value="" style="edgeStyle=orthogonalEdgeStyle;html=1;verticalAlign=bottom;endArrow=open;endSize=8;strokeColor=#ff0000;rounded=0;entryX=0.5;entryY=0;entryDx=0;entryDy=0;" parent="1" edge="1">
          <mxGeometry relative="1" as="geometry">
            <mxPoint x="5900" y="252" as="targetPoint" />
            <mxPoint x="5900" y="222" as="sourcePoint" />
          </mxGeometry>
        </mxCell>
        <mxCell id="PWu2976QpV0TzekF0w1F-166" style="edgeStyle=orthogonalEdgeStyle;rounded=0;orthogonalLoop=1;jettySize=auto;html=1;exitX=1;exitY=0.5;exitDx=0;exitDy=0;" parent="1" target="PWu2976QpV0TzekF0w1F-168" edge="1">
          <mxGeometry relative="1" as="geometry">
            <mxPoint x="5955" y="277" as="sourcePoint" />
          </mxGeometry>
        </mxCell>
        <mxCell id="PWu2976QpV0TzekF0w1F-167" style="edgeStyle=orthogonalEdgeStyle;rounded=0;orthogonalLoop=1;jettySize=auto;html=1;exitX=0.5;exitY=1;exitDx=0;exitDy=0;" parent="1" source="PWu2976QpV0TzekF0w1F-168" target="PWu2976QpV0TzekF0w1F-170" edge="1">
          <mxGeometry relative="1" as="geometry" />
        </mxCell>
        <mxCell id="PWu2976QpV0TzekF0w1F-168" value="&lt;font style=&quot;font-size: 15px;&quot; face=&quot;Lucida Console&quot;&gt;Display the Current Renewal Date&lt;/font&gt;" style="rounded=1;whiteSpace=wrap;html=1;" parent="1" vertex="1">
          <mxGeometry x="6080" y="247" width="190" height="60" as="geometry" />
        </mxCell>
        <mxCell id="PWu2976QpV0TzekF0w1F-169" style="edgeStyle=orthogonalEdgeStyle;rounded=0;orthogonalLoop=1;jettySize=auto;html=1;exitX=1;exitY=0.5;exitDx=0;exitDy=0;entryX=0;entryY=0.5;entryDx=0;entryDy=0;" parent="1" source="PWu2976QpV0TzekF0w1F-170" target="PWu2976QpV0TzekF0w1F-175" edge="1">
          <mxGeometry relative="1" as="geometry">
            <mxPoint x="5995" y="499" as="sourcePoint" />
          </mxGeometry>
        </mxCell>
        <mxCell id="PWu2976QpV0TzekF0w1F-170" value="&lt;font face=&quot;Lucida Console&quot;&gt;&lt;span style=&quot;font-size: 15px;&quot;&gt;Click Change Renewal Date&lt;/span&gt;&lt;/font&gt;" style="rounded=1;whiteSpace=wrap;html=1;" parent="1" vertex="1">
          <mxGeometry x="5805" y="362" width="190" height="60" as="geometry" />
        </mxCell>
        <mxCell id="PWu2976QpV0TzekF0w1F-171" value="" style="ellipse;html=1;shape=endState;fillColor=#000000;strokeColor=#ff0000;" parent="1" vertex="1">
          <mxGeometry x="6145" y="680" width="50" height="50" as="geometry" />
        </mxCell>
        <mxCell id="PWu2976QpV0TzekF0w1F-172" value="&lt;font style=&quot;font-size: 15px;&quot; face=&quot;Lucida Console&quot;&gt;END&lt;/font&gt;" style="text;html=1;align=center;verticalAlign=middle;resizable=0;points=[];autosize=1;strokeColor=none;fillColor=none;" parent="1" vertex="1">
          <mxGeometry x="6145" y="730" width="50" height="30" as="geometry" />
        </mxCell>
        <mxCell id="PWu2976QpV0TzekF0w1F-173" value="&lt;font style=&quot;font-size: 15px;&quot; face=&quot;Lucida Console&quot;&gt;Click Renewal Date&lt;/font&gt;" style="rounded=1;whiteSpace=wrap;html=1;" parent="1" vertex="1">
          <mxGeometry x="5820" y="247" width="160" height="60" as="geometry" />
        </mxCell>
        <mxCell id="PWu2976QpV0TzekF0w1F-174" style="edgeStyle=orthogonalEdgeStyle;rounded=0;orthogonalLoop=1;jettySize=auto;html=1;exitX=0.5;exitY=1;exitDx=0;exitDy=0;" parent="1" source="PWu2976QpV0TzekF0w1F-175" target="PWu2976QpV0TzekF0w1F-177" edge="1">
          <mxGeometry relative="1" as="geometry" />
        </mxCell>
        <mxCell id="PWu2976QpV0TzekF0w1F-175" value="&lt;font face=&quot;Lucida Console&quot;&gt;&lt;span style=&quot;font-size: 15px;&quot;&gt;Display Change Renewal Date Menu&lt;/span&gt;&lt;/font&gt;" style="rounded=1;whiteSpace=wrap;html=1;" parent="1" vertex="1">
          <mxGeometry x="6080" y="358" width="200" height="68" as="geometry" />
        </mxCell>
        <mxCell id="PWu2976QpV0TzekF0w1F-176" style="edgeStyle=orthogonalEdgeStyle;rounded=0;orthogonalLoop=1;jettySize=auto;html=1;exitX=1;exitY=0.5;exitDx=0;exitDy=0;entryX=0;entryY=0.5;entryDx=0;entryDy=0;" parent="1" source="PWu2976QpV0TzekF0w1F-177" target="PWu2976QpV0TzekF0w1F-179" edge="1">
          <mxGeometry relative="1" as="geometry" />
        </mxCell>
        <mxCell id="PWu2976QpV0TzekF0w1F-177" value="&lt;font face=&quot;Lucida Console&quot;&gt;&lt;span style=&quot;font-size: 15px;&quot;&gt;Input the Start Date &amp;amp; End Date&lt;/span&gt;&lt;/font&gt;" style="rounded=1;whiteSpace=wrap;html=1;" parent="1" vertex="1">
          <mxGeometry x="5800" y="472" width="200" height="68" as="geometry" />
        </mxCell>
        <mxCell id="PWu2976QpV0TzekF0w1F-178" style="edgeStyle=orthogonalEdgeStyle;rounded=0;orthogonalLoop=1;jettySize=auto;html=1;exitX=0.5;exitY=1;exitDx=0;exitDy=0;" parent="1" source="PWu2976QpV0TzekF0w1F-179" target="PWu2976QpV0TzekF0w1F-181" edge="1">
          <mxGeometry relative="1" as="geometry" />
        </mxCell>
        <mxCell id="PWu2976QpV0TzekF0w1F-179" value="&lt;font face=&quot;Lucida Console&quot;&gt;&lt;span style=&quot;font-size: 15px;&quot;&gt;Set the Renewal Date&lt;/span&gt;&lt;/font&gt;" style="rounded=1;whiteSpace=wrap;html=1;" parent="1" vertex="1">
          <mxGeometry x="6070" y="472" width="200" height="68" as="geometry" />
        </mxCell>
        <mxCell id="PWu2976QpV0TzekF0w1F-180" style="edgeStyle=orthogonalEdgeStyle;rounded=0;orthogonalLoop=1;jettySize=auto;html=1;exitX=0.5;exitY=1;exitDx=0;exitDy=0;entryX=0.5;entryY=0;entryDx=0;entryDy=0;" parent="1" source="PWu2976QpV0TzekF0w1F-181" target="PWu2976QpV0TzekF0w1F-171" edge="1">
          <mxGeometry relative="1" as="geometry" />
        </mxCell>
        <mxCell id="PWu2976QpV0TzekF0w1F-181" value="&lt;font face=&quot;Lucida Console&quot;&gt;&lt;span style=&quot;font-size: 15px;&quot;&gt;Display Set Successfully&lt;/span&gt;&lt;/font&gt;" style="rounded=1;whiteSpace=wrap;html=1;" parent="1" vertex="1">
          <mxGeometry x="6070" y="582" width="200" height="68" as="geometry" />
        </mxCell>
        <mxCell id="PWu2976QpV0TzekF0w1F-182" value="" style="shape=internalStorage;whiteSpace=wrap;html=1;backgroundOutline=1;dx=270;dy=40;" parent="1" vertex="1">
          <mxGeometry x="6800" y="100" width="540" height="660" as="geometry" />
        </mxCell>
        <mxCell id="PWu2976QpV0TzekF0w1F-183" value="Scholarship Admin" style="text;html=1;align=center;verticalAlign=middle;resizable=0;points=[];autosize=1;strokeColor=none;fillColor=none;fontFamily=Lucida Console;fontSize=17;" parent="1" vertex="1">
          <mxGeometry x="6845" y="106" width="200" height="30" as="geometry" />
        </mxCell>
        <mxCell id="PWu2976QpV0TzekF0w1F-184" value="Proposed System" style="text;html=1;align=center;verticalAlign=middle;resizable=0;points=[];autosize=1;strokeColor=none;fillColor=none;fontFamily=Lucida Console;fontSize=17;" parent="1" vertex="1">
          <mxGeometry x="7125" y="106" width="180" height="30" as="geometry" />
        </mxCell>
        <mxCell id="PWu2976QpV0TzekF0w1F-185" value="" style="ellipse;html=1;shape=startState;fillColor=#000000;strokeColor=#ff0000;" parent="1" vertex="1">
          <mxGeometry x="6915" y="165" width="50" height="50" as="geometry" />
        </mxCell>
        <mxCell id="PWu2976QpV0TzekF0w1F-186" value="" style="edgeStyle=orthogonalEdgeStyle;html=1;verticalAlign=bottom;endArrow=open;endSize=8;strokeColor=#ff0000;rounded=0;entryX=0.5;entryY=0;entryDx=0;entryDy=0;" parent="1" edge="1">
          <mxGeometry relative="1" as="geometry">
            <mxPoint x="6940" y="240" as="targetPoint" />
            <mxPoint x="6940" y="210" as="sourcePoint" />
          </mxGeometry>
        </mxCell>
        <mxCell id="PWu2976QpV0TzekF0w1F-187" style="edgeStyle=orthogonalEdgeStyle;rounded=0;orthogonalLoop=1;jettySize=auto;html=1;exitX=1;exitY=0.5;exitDx=0;exitDy=0;" parent="1" target="PWu2976QpV0TzekF0w1F-189" edge="1">
          <mxGeometry relative="1" as="geometry">
            <mxPoint x="6995" y="265" as="sourcePoint" />
          </mxGeometry>
        </mxCell>
        <mxCell id="PWu2976QpV0TzekF0w1F-188" style="edgeStyle=orthogonalEdgeStyle;rounded=0;orthogonalLoop=1;jettySize=auto;html=1;exitX=0.5;exitY=1;exitDx=0;exitDy=0;" parent="1" source="PWu2976QpV0TzekF0w1F-189" target="PWu2976QpV0TzekF0w1F-191" edge="1">
          <mxGeometry relative="1" as="geometry" />
        </mxCell>
        <mxCell id="PWu2976QpV0TzekF0w1F-189" value="&lt;font style=&quot;font-size: 15px;&quot; face=&quot;Lucida Console&quot;&gt;Display the Current Renewal Date&lt;/font&gt;" style="rounded=1;whiteSpace=wrap;html=1;" parent="1" vertex="1">
          <mxGeometry x="7120" y="235" width="190" height="60" as="geometry" />
        </mxCell>
        <mxCell id="PWu2976QpV0TzekF0w1F-190" style="edgeStyle=orthogonalEdgeStyle;rounded=0;orthogonalLoop=1;jettySize=auto;html=1;exitX=1;exitY=0.5;exitDx=0;exitDy=0;entryX=0;entryY=0.5;entryDx=0;entryDy=0;" parent="1" source="PWu2976QpV0TzekF0w1F-191" target="PWu2976QpV0TzekF0w1F-196" edge="1">
          <mxGeometry relative="1" as="geometry">
            <mxPoint x="7035" y="487" as="sourcePoint" />
          </mxGeometry>
        </mxCell>
        <mxCell id="PWu2976QpV0TzekF0w1F-191" value="&lt;font face=&quot;Lucida Console&quot;&gt;&lt;span style=&quot;font-size: 15px;&quot;&gt;Click Extend Renewal Date&lt;/span&gt;&lt;/font&gt;" style="rounded=1;whiteSpace=wrap;html=1;" parent="1" vertex="1">
          <mxGeometry x="6845" y="350" width="190" height="60" as="geometry" />
        </mxCell>
        <mxCell id="PWu2976QpV0TzekF0w1F-192" value="" style="ellipse;html=1;shape=endState;fillColor=#000000;strokeColor=#ff0000;" parent="1" vertex="1">
          <mxGeometry x="7185" y="668" width="50" height="50" as="geometry" />
        </mxCell>
        <mxCell id="PWu2976QpV0TzekF0w1F-193" value="&lt;font style=&quot;font-size: 15px;&quot; face=&quot;Lucida Console&quot;&gt;END&lt;/font&gt;" style="text;html=1;align=center;verticalAlign=middle;resizable=0;points=[];autosize=1;strokeColor=none;fillColor=none;" parent="1" vertex="1">
          <mxGeometry x="7185" y="718" width="50" height="30" as="geometry" />
        </mxCell>
        <mxCell id="PWu2976QpV0TzekF0w1F-194" value="&lt;font style=&quot;font-size: 15px;&quot; face=&quot;Lucida Console&quot;&gt;Click Renewal Date&lt;/font&gt;" style="rounded=1;whiteSpace=wrap;html=1;" parent="1" vertex="1">
          <mxGeometry x="6860" y="235" width="160" height="60" as="geometry" />
        </mxCell>
        <mxCell id="PWu2976QpV0TzekF0w1F-195" style="edgeStyle=orthogonalEdgeStyle;rounded=0;orthogonalLoop=1;jettySize=auto;html=1;exitX=0.5;exitY=1;exitDx=0;exitDy=0;" parent="1" source="PWu2976QpV0TzekF0w1F-196" target="PWu2976QpV0TzekF0w1F-198" edge="1">
          <mxGeometry relative="1" as="geometry" />
        </mxCell>
        <mxCell id="PWu2976QpV0TzekF0w1F-196" value="&lt;font face=&quot;Lucida Console&quot;&gt;&lt;span style=&quot;font-size: 15px;&quot;&gt;Display Extend Renewal Date Menu&lt;/span&gt;&lt;/font&gt;" style="rounded=1;whiteSpace=wrap;html=1;" parent="1" vertex="1">
          <mxGeometry x="7120" y="346" width="200" height="68" as="geometry" />
        </mxCell>
        <mxCell id="PWu2976QpV0TzekF0w1F-197" style="edgeStyle=orthogonalEdgeStyle;rounded=0;orthogonalLoop=1;jettySize=auto;html=1;exitX=1;exitY=0.5;exitDx=0;exitDy=0;entryX=0;entryY=0.5;entryDx=0;entryDy=0;" parent="1" source="PWu2976QpV0TzekF0w1F-198" target="PWu2976QpV0TzekF0w1F-200" edge="1">
          <mxGeometry relative="1" as="geometry" />
        </mxCell>
        <mxCell id="PWu2976QpV0TzekF0w1F-198" value="&lt;font face=&quot;Lucida Console&quot;&gt;&lt;span style=&quot;font-size: 15px;&quot;&gt;Input the End Date&amp;nbsp;&lt;/span&gt;&lt;/font&gt;" style="rounded=1;whiteSpace=wrap;html=1;" parent="1" vertex="1">
          <mxGeometry x="6840" y="460" width="200" height="68" as="geometry" />
        </mxCell>
        <mxCell id="PWu2976QpV0TzekF0w1F-199" style="edgeStyle=orthogonalEdgeStyle;rounded=0;orthogonalLoop=1;jettySize=auto;html=1;exitX=0.5;exitY=1;exitDx=0;exitDy=0;" parent="1" source="PWu2976QpV0TzekF0w1F-200" target="PWu2976QpV0TzekF0w1F-202" edge="1">
          <mxGeometry relative="1" as="geometry" />
        </mxCell>
        <mxCell id="PWu2976QpV0TzekF0w1F-200" value="&lt;font face=&quot;Lucida Console&quot;&gt;&lt;span style=&quot;font-size: 15px;&quot;&gt;Update the Renewal End Date&lt;/span&gt;&lt;/font&gt;" style="rounded=1;whiteSpace=wrap;html=1;" parent="1" vertex="1">
          <mxGeometry x="7110" y="460" width="200" height="68" as="geometry" />
        </mxCell>
        <mxCell id="PWu2976QpV0TzekF0w1F-201" style="edgeStyle=orthogonalEdgeStyle;rounded=0;orthogonalLoop=1;jettySize=auto;html=1;exitX=0.5;exitY=1;exitDx=0;exitDy=0;entryX=0.5;entryY=0;entryDx=0;entryDy=0;" parent="1" source="PWu2976QpV0TzekF0w1F-202" target="PWu2976QpV0TzekF0w1F-192" edge="1">
          <mxGeometry relative="1" as="geometry" />
        </mxCell>
        <mxCell id="PWu2976QpV0TzekF0w1F-202" value="&lt;font face=&quot;Lucida Console&quot;&gt;&lt;span style=&quot;font-size: 15px;&quot;&gt;Display Set Successfully&lt;/span&gt;&lt;/font&gt;" style="rounded=1;whiteSpace=wrap;html=1;" parent="1" vertex="1">
          <mxGeometry x="7110" y="570" width="200" height="68" as="geometry" />
        </mxCell>
        <mxCell id="PWu2976QpV0TzekF0w1F-203" value="" style="shape=internalStorage;whiteSpace=wrap;html=1;backgroundOutline=1;dx=270;dy=40;" parent="1" vertex="1">
          <mxGeometry x="7880" y="120" width="540" height="660" as="geometry" />
        </mxCell>
        <mxCell id="PWu2976QpV0TzekF0w1F-204" value="Scholarship Admin" style="text;html=1;align=center;verticalAlign=middle;resizable=0;points=[];autosize=1;strokeColor=none;fillColor=none;fontFamily=Lucida Console;fontSize=17;" parent="1" vertex="1">
          <mxGeometry x="7925" y="126" width="200" height="30" as="geometry" />
        </mxCell>
        <mxCell id="PWu2976QpV0TzekF0w1F-205" value="Proposed System" style="text;html=1;align=center;verticalAlign=middle;resizable=0;points=[];autosize=1;strokeColor=none;fillColor=none;fontFamily=Lucida Console;fontSize=17;" parent="1" vertex="1">
          <mxGeometry x="8205" y="126" width="180" height="30" as="geometry" />
        </mxCell>
        <mxCell id="PWu2976QpV0TzekF0w1F-206" value="" style="ellipse;html=1;shape=startState;fillColor=#000000;strokeColor=#ff0000;" parent="1" vertex="1">
          <mxGeometry x="7995" y="185" width="50" height="50" as="geometry" />
        </mxCell>
        <mxCell id="PWu2976QpV0TzekF0w1F-207" value="" style="edgeStyle=orthogonalEdgeStyle;html=1;verticalAlign=bottom;endArrow=open;endSize=8;strokeColor=#ff0000;rounded=0;entryX=0.5;entryY=0;entryDx=0;entryDy=0;" parent="1" edge="1">
          <mxGeometry relative="1" as="geometry">
            <mxPoint x="8020" y="260" as="targetPoint" />
            <mxPoint x="8020" y="230" as="sourcePoint" />
          </mxGeometry>
        </mxCell>
        <mxCell id="PWu2976QpV0TzekF0w1F-208" style="edgeStyle=orthogonalEdgeStyle;rounded=0;orthogonalLoop=1;jettySize=auto;html=1;exitX=1;exitY=0.5;exitDx=0;exitDy=0;" parent="1" target="PWu2976QpV0TzekF0w1F-210" edge="1">
          <mxGeometry relative="1" as="geometry">
            <mxPoint x="8075" y="285" as="sourcePoint" />
          </mxGeometry>
        </mxCell>
        <mxCell id="PWu2976QpV0TzekF0w1F-209" style="edgeStyle=orthogonalEdgeStyle;rounded=0;orthogonalLoop=1;jettySize=auto;html=1;exitX=0.5;exitY=1;exitDx=0;exitDy=0;" parent="1" source="PWu2976QpV0TzekF0w1F-210" target="PWu2976QpV0TzekF0w1F-212" edge="1">
          <mxGeometry relative="1" as="geometry" />
        </mxCell>
        <mxCell id="PWu2976QpV0TzekF0w1F-210" value="&lt;font style=&quot;font-size: 15px;&quot; face=&quot;Lucida Console&quot;&gt;Display the Current Application Date&lt;/font&gt;" style="rounded=1;whiteSpace=wrap;html=1;" parent="1" vertex="1">
          <mxGeometry x="8200" y="255" width="190" height="60" as="geometry" />
        </mxCell>
        <mxCell id="PWu2976QpV0TzekF0w1F-211" style="edgeStyle=orthogonalEdgeStyle;rounded=0;orthogonalLoop=1;jettySize=auto;html=1;exitX=1;exitY=0.5;exitDx=0;exitDy=0;entryX=0;entryY=0.5;entryDx=0;entryDy=0;" parent="1" source="PWu2976QpV0TzekF0w1F-212" target="PWu2976QpV0TzekF0w1F-217" edge="1">
          <mxGeometry relative="1" as="geometry">
            <mxPoint x="8115" y="507" as="sourcePoint" />
          </mxGeometry>
        </mxCell>
        <mxCell id="PWu2976QpV0TzekF0w1F-212" value="&lt;font face=&quot;Lucida Console&quot;&gt;&lt;span style=&quot;font-size: 15px;&quot;&gt;Click Extend Application Date&lt;/span&gt;&lt;/font&gt;" style="rounded=1;whiteSpace=wrap;html=1;" parent="1" vertex="1">
          <mxGeometry x="7925" y="370" width="190" height="60" as="geometry" />
        </mxCell>
        <mxCell id="PWu2976QpV0TzekF0w1F-213" value="" style="ellipse;html=1;shape=endState;fillColor=#000000;strokeColor=#ff0000;" parent="1" vertex="1">
          <mxGeometry x="8265" y="688" width="50" height="50" as="geometry" />
        </mxCell>
        <mxCell id="PWu2976QpV0TzekF0w1F-214" value="&lt;font style=&quot;font-size: 15px;&quot; face=&quot;Lucida Console&quot;&gt;END&lt;/font&gt;" style="text;html=1;align=center;verticalAlign=middle;resizable=0;points=[];autosize=1;strokeColor=none;fillColor=none;" parent="1" vertex="1">
          <mxGeometry x="8265" y="738" width="50" height="30" as="geometry" />
        </mxCell>
        <mxCell id="PWu2976QpV0TzekF0w1F-215" value="&lt;font style=&quot;font-size: 15px;&quot; face=&quot;Lucida Console&quot;&gt;Click Application Date&lt;/font&gt;" style="rounded=1;whiteSpace=wrap;html=1;" parent="1" vertex="1">
          <mxGeometry x="7940" y="255" width="160" height="60" as="geometry" />
        </mxCell>
        <mxCell id="PWu2976QpV0TzekF0w1F-216" style="edgeStyle=orthogonalEdgeStyle;rounded=0;orthogonalLoop=1;jettySize=auto;html=1;exitX=0.5;exitY=1;exitDx=0;exitDy=0;" parent="1" source="PWu2976QpV0TzekF0w1F-217" target="PWu2976QpV0TzekF0w1F-219" edge="1">
          <mxGeometry relative="1" as="geometry" />
        </mxCell>
        <mxCell id="PWu2976QpV0TzekF0w1F-217" value="&lt;font face=&quot;Lucida Console&quot;&gt;&lt;span style=&quot;font-size: 15px;&quot;&gt;Display Extend Application Date Menu&lt;/span&gt;&lt;/font&gt;" style="rounded=1;whiteSpace=wrap;html=1;" parent="1" vertex="1">
          <mxGeometry x="8200" y="366" width="200" height="68" as="geometry" />
        </mxCell>
        <mxCell id="PWu2976QpV0TzekF0w1F-218" style="edgeStyle=orthogonalEdgeStyle;rounded=0;orthogonalLoop=1;jettySize=auto;html=1;exitX=1;exitY=0.5;exitDx=0;exitDy=0;entryX=0;entryY=0.5;entryDx=0;entryDy=0;" parent="1" source="PWu2976QpV0TzekF0w1F-219" target="PWu2976QpV0TzekF0w1F-221" edge="1">
          <mxGeometry relative="1" as="geometry" />
        </mxCell>
        <mxCell id="PWu2976QpV0TzekF0w1F-219" value="&lt;font face=&quot;Lucida Console&quot;&gt;&lt;span style=&quot;font-size: 15px;&quot;&gt;Input the End Date&amp;nbsp;&lt;/span&gt;&lt;/font&gt;" style="rounded=1;whiteSpace=wrap;html=1;" parent="1" vertex="1">
          <mxGeometry x="7920" y="480" width="200" height="68" as="geometry" />
        </mxCell>
        <mxCell id="PWu2976QpV0TzekF0w1F-220" style="edgeStyle=orthogonalEdgeStyle;rounded=0;orthogonalLoop=1;jettySize=auto;html=1;exitX=0.5;exitY=1;exitDx=0;exitDy=0;" parent="1" source="PWu2976QpV0TzekF0w1F-221" target="PWu2976QpV0TzekF0w1F-223" edge="1">
          <mxGeometry relative="1" as="geometry" />
        </mxCell>
        <mxCell id="PWu2976QpV0TzekF0w1F-221" value="&lt;font face=&quot;Lucida Console&quot;&gt;&lt;span style=&quot;font-size: 15px;&quot;&gt;Update the Application End Date&lt;/span&gt;&lt;/font&gt;" style="rounded=1;whiteSpace=wrap;html=1;" parent="1" vertex="1">
          <mxGeometry x="8190" y="480" width="200" height="68" as="geometry" />
        </mxCell>
        <mxCell id="PWu2976QpV0TzekF0w1F-222" style="edgeStyle=orthogonalEdgeStyle;rounded=0;orthogonalLoop=1;jettySize=auto;html=1;exitX=0.5;exitY=1;exitDx=0;exitDy=0;entryX=0.5;entryY=0;entryDx=0;entryDy=0;" parent="1" source="PWu2976QpV0TzekF0w1F-223" target="PWu2976QpV0TzekF0w1F-213" edge="1">
          <mxGeometry relative="1" as="geometry" />
        </mxCell>
        <mxCell id="PWu2976QpV0TzekF0w1F-223" value="&lt;font face=&quot;Lucida Console&quot;&gt;&lt;span style=&quot;font-size: 15px;&quot;&gt;Display Set Successfully&lt;/span&gt;&lt;/font&gt;" style="rounded=1;whiteSpace=wrap;html=1;" parent="1" vertex="1">
          <mxGeometry x="8190" y="590" width="200" height="68" as="geometry" />
        </mxCell>
        <mxCell id="PWu2976QpV0TzekF0w1F-224" value="" style="shape=internalStorage;whiteSpace=wrap;html=1;backgroundOutline=1;dx=270;dy=40;" parent="1" vertex="1">
          <mxGeometry x="8920" y="118" width="540" height="660" as="geometry" />
        </mxCell>
        <mxCell id="PWu2976QpV0TzekF0w1F-225" value="Scholarship Admin" style="text;html=1;align=center;verticalAlign=middle;resizable=0;points=[];autosize=1;strokeColor=none;fillColor=none;fontFamily=Lucida Console;fontSize=17;" parent="1" vertex="1">
          <mxGeometry x="8965" y="124" width="200" height="30" as="geometry" />
        </mxCell>
        <mxCell id="PWu2976QpV0TzekF0w1F-226" value="Proposed System" style="text;html=1;align=center;verticalAlign=middle;resizable=0;points=[];autosize=1;strokeColor=none;fillColor=none;fontFamily=Lucida Console;fontSize=17;" parent="1" vertex="1">
          <mxGeometry x="9245" y="124" width="180" height="30" as="geometry" />
        </mxCell>
        <mxCell id="PWu2976QpV0TzekF0w1F-227" value="" style="ellipse;html=1;shape=startState;fillColor=#000000;strokeColor=#ff0000;" parent="1" vertex="1">
          <mxGeometry x="9035" y="154" width="50" height="50" as="geometry" />
        </mxCell>
        <mxCell id="PWu2976QpV0TzekF0w1F-228" value="" style="edgeStyle=orthogonalEdgeStyle;html=1;verticalAlign=bottom;endArrow=open;endSize=8;strokeColor=#ff0000;rounded=0;entryX=0.5;entryY=0;entryDx=0;entryDy=0;" parent="1" edge="1">
          <mxGeometry relative="1" as="geometry">
            <mxPoint x="9060" y="230" as="targetPoint" />
            <mxPoint x="9060" y="200" as="sourcePoint" />
          </mxGeometry>
        </mxCell>
        <mxCell id="PWu2976QpV0TzekF0w1F-229" style="edgeStyle=orthogonalEdgeStyle;rounded=0;orthogonalLoop=1;jettySize=auto;html=1;exitX=1;exitY=0.5;exitDx=0;exitDy=0;" parent="1" target="PWu2976QpV0TzekF0w1F-231" edge="1">
          <mxGeometry relative="1" as="geometry">
            <mxPoint x="9115" y="255" as="sourcePoint" />
          </mxGeometry>
        </mxCell>
        <mxCell id="PWu2976QpV0TzekF0w1F-230" style="edgeStyle=orthogonalEdgeStyle;rounded=0;orthogonalLoop=1;jettySize=auto;html=1;exitX=0.5;exitY=1;exitDx=0;exitDy=0;" parent="1" source="PWu2976QpV0TzekF0w1F-231" target="PWu2976QpV0TzekF0w1F-234" edge="1">
          <mxGeometry relative="1" as="geometry" />
        </mxCell>
        <mxCell id="PWu2976QpV0TzekF0w1F-231" value="&lt;font style=&quot;font-size: 15px;&quot; face=&quot;Lucida Console&quot;&gt;Display Total Scholarship Slot Dashboard&lt;/font&gt;" style="rounded=1;whiteSpace=wrap;html=1;" parent="1" vertex="1">
          <mxGeometry x="9250" y="225" width="160" height="60" as="geometry" />
        </mxCell>
        <mxCell id="PWu2976QpV0TzekF0w1F-232" style="edgeStyle=orthogonalEdgeStyle;rounded=0;orthogonalLoop=1;jettySize=auto;html=1;exitX=1;exitY=0.5;exitDx=0;exitDy=0;entryX=0;entryY=0.5;entryDx=0;entryDy=0;" parent="1" source="PWu2976QpV0TzekF0w1F-242" target="PWu2976QpV0TzekF0w1F-239" edge="1">
          <mxGeometry relative="1" as="geometry" />
        </mxCell>
        <mxCell id="PWu2976QpV0TzekF0w1F-233" style="edgeStyle=orthogonalEdgeStyle;rounded=0;orthogonalLoop=1;jettySize=auto;html=1;exitX=0.5;exitY=1;exitDx=0;exitDy=0;" parent="1" source="PWu2976QpV0TzekF0w1F-234" target="PWu2976QpV0TzekF0w1F-242" edge="1">
          <mxGeometry relative="1" as="geometry" />
        </mxCell>
        <mxCell id="PWu2976QpV0TzekF0w1F-234" value="&lt;font face=&quot;Lucida Console&quot;&gt;&lt;span style=&quot;font-size: 15px;&quot;&gt;Input the number of Scholarship Slots&lt;/span&gt;&lt;/font&gt;" style="rounded=1;whiteSpace=wrap;html=1;" parent="1" vertex="1">
          <mxGeometry x="8965" y="340" width="190" height="60" as="geometry" />
        </mxCell>
        <mxCell id="PWu2976QpV0TzekF0w1F-235" value="" style="ellipse;html=1;shape=endState;fillColor=#000000;strokeColor=#ff0000;" parent="1" vertex="1">
          <mxGeometry x="9305" y="668" width="50" height="50" as="geometry" />
        </mxCell>
        <mxCell id="PWu2976QpV0TzekF0w1F-236" value="&lt;font style=&quot;font-size: 15px;&quot; face=&quot;Lucida Console&quot;&gt;END&lt;/font&gt;" style="text;html=1;align=center;verticalAlign=middle;resizable=0;points=[];autosize=1;strokeColor=none;fillColor=none;" parent="1" vertex="1">
          <mxGeometry x="9305" y="728" width="50" height="30" as="geometry" />
        </mxCell>
        <mxCell id="PWu2976QpV0TzekF0w1F-237" value="&lt;font style=&quot;font-size: 15px;&quot; face=&quot;Lucida Console&quot;&gt;Click Set Total Scholarship Slot&lt;/font&gt;" style="rounded=1;whiteSpace=wrap;html=1;" parent="1" vertex="1">
          <mxGeometry x="8980" y="225" width="160" height="60" as="geometry" />
        </mxCell>
        <mxCell id="PWu2976QpV0TzekF0w1F-238" style="edgeStyle=orthogonalEdgeStyle;rounded=0;orthogonalLoop=1;jettySize=auto;html=1;exitX=0.5;exitY=1;exitDx=0;exitDy=0;" parent="1" source="PWu2976QpV0TzekF0w1F-239" target="PWu2976QpV0TzekF0w1F-241" edge="1">
          <mxGeometry relative="1" as="geometry" />
        </mxCell>
        <mxCell id="PWu2976QpV0TzekF0w1F-239" value="&lt;font face=&quot;Lucida Console&quot;&gt;&lt;span style=&quot;font-size: 15px;&quot;&gt;Set the Total Scholarship Slot&lt;/span&gt;&lt;/font&gt;" style="rounded=1;whiteSpace=wrap;html=1;" parent="1" vertex="1">
          <mxGeometry x="9230" y="443" width="200" height="68" as="geometry" />
        </mxCell>
        <mxCell id="PWu2976QpV0TzekF0w1F-240" style="edgeStyle=orthogonalEdgeStyle;rounded=0;orthogonalLoop=1;jettySize=auto;html=1;exitX=0.5;exitY=1;exitDx=0;exitDy=0;" parent="1" source="PWu2976QpV0TzekF0w1F-241" edge="1">
          <mxGeometry relative="1" as="geometry">
            <mxPoint x="9330" y="668" as="targetPoint" />
          </mxGeometry>
        </mxCell>
        <mxCell id="PWu2976QpV0TzekF0w1F-241" value="&lt;font face=&quot;Lucida Console&quot;&gt;&lt;span style=&quot;font-size: 15px;&quot;&gt;Saved in Scholarship Slot Limit&lt;/span&gt;&lt;/font&gt;" style="rounded=1;whiteSpace=wrap;html=1;" parent="1" vertex="1">
          <mxGeometry x="9230" y="558" width="200" height="68" as="geometry" />
        </mxCell>
        <mxCell id="PWu2976QpV0TzekF0w1F-242" value="&lt;font face=&quot;Lucida Console&quot;&gt;&lt;span style=&quot;font-size: 15px;&quot;&gt;Click Set Button&lt;/span&gt;&lt;/font&gt;" style="rounded=1;whiteSpace=wrap;html=1;" parent="1" vertex="1">
          <mxGeometry x="8965" y="447" width="190" height="60" as="geometry" />
        </mxCell>
        <mxCell id="PWu2976QpV0TzekF0w1F-286" value="" style="shape=internalStorage;whiteSpace=wrap;html=1;backgroundOutline=1;dx=270;dy=40;" parent="1" vertex="1">
          <mxGeometry x="10200" y="126" width="640" height="1184" as="geometry" />
        </mxCell>
        <mxCell id="PWu2976QpV0TzekF0w1F-287" value="Scholarship Admin" style="text;html=1;align=center;verticalAlign=middle;resizable=0;points=[];autosize=1;strokeColor=none;fillColor=none;fontFamily=Lucida Console;fontSize=17;" parent="1" vertex="1">
          <mxGeometry x="10245" y="136" width="200" height="30" as="geometry" />
        </mxCell>
        <mxCell id="PWu2976QpV0TzekF0w1F-288" value="Proposed System" style="text;html=1;align=center;verticalAlign=middle;resizable=0;points=[];autosize=1;strokeColor=none;fillColor=none;fontFamily=Lucida Console;fontSize=17;" parent="1" vertex="1">
          <mxGeometry x="10525" y="136" width="180" height="30" as="geometry" />
        </mxCell>
        <mxCell id="PWu2976QpV0TzekF0w1F-289" value="" style="ellipse;html=1;shape=startState;fillColor=#000000;strokeColor=#ff0000;" parent="1" vertex="1">
          <mxGeometry x="10315" y="195" width="50" height="50" as="geometry" />
        </mxCell>
        <mxCell id="PWu2976QpV0TzekF0w1F-290" value="" style="edgeStyle=orthogonalEdgeStyle;html=1;verticalAlign=bottom;endArrow=open;endSize=8;strokeColor=#ff0000;rounded=0;entryX=0.5;entryY=0;entryDx=0;entryDy=0;" parent="1" edge="1">
          <mxGeometry relative="1" as="geometry">
            <mxPoint x="10340" y="270" as="targetPoint" />
            <mxPoint x="10340" y="240" as="sourcePoint" />
          </mxGeometry>
        </mxCell>
        <mxCell id="PWu2976QpV0TzekF0w1F-291" style="edgeStyle=orthogonalEdgeStyle;rounded=0;orthogonalLoop=1;jettySize=auto;html=1;exitX=1;exitY=0.5;exitDx=0;exitDy=0;" parent="1" target="PWu2976QpV0TzekF0w1F-293" edge="1">
          <mxGeometry relative="1" as="geometry">
            <mxPoint x="10395" y="295" as="sourcePoint" />
          </mxGeometry>
        </mxCell>
        <mxCell id="PWu2976QpV0TzekF0w1F-292" style="edgeStyle=orthogonalEdgeStyle;rounded=0;orthogonalLoop=1;jettySize=auto;html=1;exitX=0.5;exitY=1;exitDx=0;exitDy=0;" parent="1" source="PWu2976QpV0TzekF0w1F-293" target="PWu2976QpV0TzekF0w1F-295" edge="1">
          <mxGeometry relative="1" as="geometry" />
        </mxCell>
        <mxCell id="PWu2976QpV0TzekF0w1F-293" value="&lt;font style=&quot;font-size: 15px;&quot; face=&quot;Lucida Console&quot;&gt;Display the Create Report Dashboard&lt;/font&gt;" style="rounded=1;whiteSpace=wrap;html=1;" parent="1" vertex="1">
          <mxGeometry x="10520" y="265" width="190" height="60" as="geometry" />
        </mxCell>
        <mxCell id="PWu2976QpV0TzekF0w1F-294" style="edgeStyle=orthogonalEdgeStyle;rounded=0;orthogonalLoop=1;jettySize=auto;html=1;exitX=1;exitY=0.5;exitDx=0;exitDy=0;entryX=0;entryY=0.5;entryDx=0;entryDy=0;" parent="1" source="PWu2976QpV0TzekF0w1F-295" target="PWu2976QpV0TzekF0w1F-300" edge="1">
          <mxGeometry relative="1" as="geometry">
            <mxPoint x="10435" y="517" as="sourcePoint" />
          </mxGeometry>
        </mxCell>
        <mxCell id="PWu2976QpV0TzekF0w1F-295" value="&lt;font face=&quot;Lucida Console&quot;&gt;&lt;span style=&quot;font-size: 15px;&quot;&gt;Input Title and type of Report&lt;/span&gt;&lt;/font&gt;" style="rounded=1;whiteSpace=wrap;html=1;" parent="1" vertex="1">
          <mxGeometry x="10245" y="380" width="190" height="60" as="geometry" />
        </mxCell>
        <mxCell id="PWu2976QpV0TzekF0w1F-296" value="" style="ellipse;html=1;shape=endState;fillColor=#000000;strokeColor=#ff0000;" parent="1" vertex="1">
          <mxGeometry x="10602.5" y="1190" width="50" height="50" as="geometry" />
        </mxCell>
        <mxCell id="PWu2976QpV0TzekF0w1F-297" value="&lt;font style=&quot;font-size: 15px;&quot; face=&quot;Lucida Console&quot;&gt;END&lt;/font&gt;" style="text;html=1;align=center;verticalAlign=middle;resizable=0;points=[];autosize=1;strokeColor=none;fillColor=none;" parent="1" vertex="1">
          <mxGeometry x="10602.5" y="1240" width="50" height="30" as="geometry" />
        </mxCell>
        <mxCell id="PWu2976QpV0TzekF0w1F-298" value="&lt;font style=&quot;font-size: 15px;&quot; face=&quot;Lucida Console&quot;&gt;Click Create Report&lt;/font&gt;" style="rounded=1;whiteSpace=wrap;html=1;" parent="1" vertex="1">
          <mxGeometry x="10260" y="265" width="160" height="60" as="geometry" />
        </mxCell>
        <mxCell id="PWu2976QpV0TzekF0w1F-307" style="edgeStyle=orthogonalEdgeStyle;rounded=0;orthogonalLoop=1;jettySize=auto;html=1;exitX=0.5;exitY=1;exitDx=0;exitDy=0;entryX=0.5;entryY=0;entryDx=0;entryDy=0;" parent="1" source="PWu2976QpV0TzekF0w1F-300" target="PWu2976QpV0TzekF0w1F-304" edge="1">
          <mxGeometry relative="1" as="geometry" />
        </mxCell>
        <mxCell id="PWu2976QpV0TzekF0w1F-300" value="&lt;font face=&quot;Lucida Console&quot;&gt;&lt;span style=&quot;font-size: 15px;&quot;&gt;Access the necessary Database tables&lt;/span&gt;&lt;/font&gt;" style="rounded=1;whiteSpace=wrap;html=1;" parent="1" vertex="1">
          <mxGeometry x="10520" y="376" width="200" height="68" as="geometry" />
        </mxCell>
        <mxCell id="PWu2976QpV0TzekF0w1F-309" style="edgeStyle=orthogonalEdgeStyle;rounded=0;orthogonalLoop=1;jettySize=auto;html=1;exitX=0.5;exitY=1;exitDx=0;exitDy=0;" parent="1" source="PWu2976QpV0TzekF0w1F-304" target="PWu2976QpV0TzekF0w1F-308" edge="1">
          <mxGeometry relative="1" as="geometry" />
        </mxCell>
        <mxCell id="PWu2976QpV0TzekF0w1F-304" value="&lt;font face=&quot;Lucida Console&quot;&gt;&lt;span style=&quot;font-size: 15px;&quot;&gt;Generate Report&lt;/span&gt;&lt;/font&gt;" style="rounded=1;whiteSpace=wrap;html=1;" parent="1" vertex="1">
          <mxGeometry x="10520" y="487" width="200" height="68" as="geometry" />
        </mxCell>
        <mxCell id="PWu2976QpV0TzekF0w1F-324" style="edgeStyle=orthogonalEdgeStyle;rounded=0;orthogonalLoop=1;jettySize=auto;html=1;exitX=1;exitY=0.5;exitDx=0;exitDy=0;entryX=1;entryY=0.5;entryDx=0;entryDy=0;" parent="1" source="PWu2976QpV0TzekF0w1F-306" target="PWu2976QpV0TzekF0w1F-319" edge="1">
          <mxGeometry relative="1" as="geometry">
            <Array as="points">
              <mxPoint x="10800" y="870" />
              <mxPoint x="10800" y="1065" />
            </Array>
          </mxGeometry>
        </mxCell>
        <mxCell id="PWu2976QpV0TzekF0w1F-306" value="&lt;font face=&quot;Lucida Console&quot;&gt;&lt;span style=&quot;font-size: 15px;&quot;&gt;Require the email address of the receiver&lt;/span&gt;&lt;/font&gt;" style="rounded=1;whiteSpace=wrap;html=1;" parent="1" vertex="1">
          <mxGeometry x="10525" y="836" width="200" height="68" as="geometry" />
        </mxCell>
        <mxCell id="PWu2976QpV0TzekF0w1F-311" style="edgeStyle=orthogonalEdgeStyle;rounded=0;orthogonalLoop=1;jettySize=auto;html=1;exitX=0.5;exitY=1;exitDx=0;exitDy=0;entryX=0.5;entryY=0;entryDx=0;entryDy=0;" parent="1" source="PWu2976QpV0TzekF0w1F-308" target="PWu2976QpV0TzekF0w1F-310" edge="1">
          <mxGeometry relative="1" as="geometry" />
        </mxCell>
        <mxCell id="PWu2976QpV0TzekF0w1F-308" value="&lt;font face=&quot;Lucida Console&quot;&gt;&lt;span style=&quot;font-size: 15px;&quot;&gt;Display Report Successfully Created&lt;/span&gt;&lt;/font&gt;" style="rounded=1;whiteSpace=wrap;html=1;" parent="1" vertex="1">
          <mxGeometry x="10520" y="597" width="200" height="68" as="geometry" />
        </mxCell>
        <mxCell id="PWu2976QpV0TzekF0w1F-313" style="edgeStyle=orthogonalEdgeStyle;rounded=0;orthogonalLoop=1;jettySize=auto;html=1;exitX=0;exitY=0.5;exitDx=0;exitDy=0;entryX=1;entryY=0.5;entryDx=0;entryDy=0;" parent="1" source="PWu2976QpV0TzekF0w1F-310" target="PWu2976QpV0TzekF0w1F-312" edge="1">
          <mxGeometry relative="1" as="geometry" />
        </mxCell>
        <mxCell id="PWu2976QpV0TzekF0w1F-310" value="&lt;font face=&quot;Lucida Console&quot;&gt;&lt;span style=&quot;font-size: 15px;&quot;&gt;Display Share Report Menu&lt;/span&gt;&lt;/font&gt;" style="rounded=1;whiteSpace=wrap;html=1;" parent="1" vertex="1">
          <mxGeometry x="10520" y="712" width="200" height="68" as="geometry" />
        </mxCell>
        <mxCell id="PWu2976QpV0TzekF0w1F-315" style="edgeStyle=orthogonalEdgeStyle;rounded=0;orthogonalLoop=1;jettySize=auto;html=1;exitX=0.5;exitY=1;exitDx=0;exitDy=0;" parent="1" source="PWu2976QpV0TzekF0w1F-312" target="PWu2976QpV0TzekF0w1F-314" edge="1">
          <mxGeometry relative="1" as="geometry" />
        </mxCell>
        <mxCell id="PWu2976QpV0TzekF0w1F-312" value="&lt;font face=&quot;Lucida Console&quot;&gt;&lt;span style=&quot;font-size: 15px;&quot;&gt;Choose between Share or Print&lt;/span&gt;&lt;/font&gt;" style="rounded=1;whiteSpace=wrap;html=1;" parent="1" vertex="1">
          <mxGeometry x="10235" y="711" width="200" height="68" as="geometry" />
        </mxCell>
        <mxCell id="PWu2976QpV0TzekF0w1F-316" style="edgeStyle=orthogonalEdgeStyle;rounded=0;orthogonalLoop=1;jettySize=auto;html=1;exitX=1;exitY=0.5;exitDx=0;exitDy=0;entryX=0;entryY=0.5;entryDx=0;entryDy=0;" parent="1" source="PWu2976QpV0TzekF0w1F-314" target="PWu2976QpV0TzekF0w1F-306" edge="1">
          <mxGeometry relative="1" as="geometry" />
        </mxCell>
        <mxCell id="PWu2976QpV0TzekF0w1F-314" value="&lt;font style=&quot;font-size: 15px;&quot; face=&quot;Lucida Console&quot;&gt;Share?&lt;/font&gt;" style="rhombus;whiteSpace=wrap;html=1;" parent="1" vertex="1">
          <mxGeometry x="10295" y="830" width="80" height="80" as="geometry" />
        </mxCell>
        <mxCell id="PWu2976QpV0TzekF0w1F-317" style="edgeStyle=orthogonalEdgeStyle;rounded=0;orthogonalLoop=1;jettySize=auto;html=1;exitX=0.5;exitY=1;exitDx=0;exitDy=0;" parent="1" source="PWu2976QpV0TzekF0w1F-314" target="PWu2976QpV0TzekF0w1F-318" edge="1">
          <mxGeometry relative="1" as="geometry">
            <Array as="points">
              <mxPoint x="10335" y="974" />
            </Array>
          </mxGeometry>
        </mxCell>
        <mxCell id="PWu2976QpV0TzekF0w1F-318" value="&lt;font face=&quot;Lucida Console&quot;&gt;&lt;span style=&quot;font-size: 15px;&quot;&gt;Print&lt;/span&gt;&lt;/font&gt;" style="rounded=1;whiteSpace=wrap;html=1;" parent="1" vertex="1">
          <mxGeometry x="10560" y="940" width="135" height="68" as="geometry" />
        </mxCell>
        <mxCell id="PWu2976QpV0TzekF0w1F-323" style="edgeStyle=orthogonalEdgeStyle;rounded=0;orthogonalLoop=1;jettySize=auto;html=1;exitX=0.5;exitY=1;exitDx=0;exitDy=0;entryX=0.5;entryY=0;entryDx=0;entryDy=0;" parent="1" source="PWu2976QpV0TzekF0w1F-319" target="PWu2976QpV0TzekF0w1F-296" edge="1">
          <mxGeometry relative="1" as="geometry" />
        </mxCell>
        <mxCell id="PWu2976QpV0TzekF0w1F-319" value="&lt;font face=&quot;Lucida Console&quot;&gt;&lt;span style=&quot;font-size: 15px;&quot;&gt;Display &quot;Sent Successfully&quot;&lt;/span&gt;&lt;/font&gt;" style="rounded=1;whiteSpace=wrap;html=1;" parent="1" vertex="1">
          <mxGeometry x="10527.5" y="1050" width="200" height="68" as="geometry" />
        </mxCell>
        <mxCell id="PWu2976QpV0TzekF0w1F-320" value="&lt;font face=&quot;Lucida Console&quot; style=&quot;font-size: 15px;&quot;&gt;YES&lt;/font&gt;" style="text;html=1;align=center;verticalAlign=middle;resizable=0;points=[];autosize=1;strokeColor=none;fillColor=none;" parent="1" vertex="1">
          <mxGeometry x="10365" y="842" width="50" height="30" as="geometry" />
        </mxCell>
        <mxCell id="PWu2976QpV0TzekF0w1F-321" value="&lt;font face=&quot;Lucida Console&quot; style=&quot;font-size: 15px;&quot;&gt;NO&lt;/font&gt;" style="text;html=1;align=center;verticalAlign=middle;resizable=0;points=[];autosize=1;strokeColor=none;fillColor=none;" parent="1" vertex="1">
          <mxGeometry x="10345" y="930" width="40" height="30" as="geometry" />
        </mxCell>
        <mxCell id="PWu2976QpV0TzekF0w1F-325" style="edgeStyle=orthogonalEdgeStyle;rounded=0;orthogonalLoop=1;jettySize=auto;html=1;exitX=1;exitY=0.5;exitDx=0;exitDy=0;entryX=-0.018;entryY=0.609;entryDx=0;entryDy=0;entryPerimeter=0;" parent="1" source="PWu2976QpV0TzekF0w1F-318" target="PWu2976QpV0TzekF0w1F-296" edge="1">
          <mxGeometry relative="1" as="geometry">
            <Array as="points">
              <mxPoint x="10720" y="974" />
              <mxPoint x="10720" y="1030" />
              <mxPoint x="10510" y="1030" />
              <mxPoint x="10510" y="1220" />
            </Array>
          </mxGeometry>
        </mxCell>
        <mxCell id="PWu2976QpV0TzekF0w1F-326" value="" style="shape=internalStorage;whiteSpace=wrap;html=1;backgroundOutline=1;dx=270;dy=40;" parent="1" vertex="1">
          <mxGeometry x="11160" y="113" width="590" height="927" as="geometry" />
        </mxCell>
        <mxCell id="PWu2976QpV0TzekF0w1F-327" value="Scholarship Admin" style="text;html=1;align=center;verticalAlign=middle;resizable=0;points=[];autosize=1;strokeColor=none;fillColor=none;fontFamily=Lucida Console;fontSize=17;" parent="1" vertex="1">
          <mxGeometry x="11205" y="123" width="200" height="30" as="geometry" />
        </mxCell>
        <mxCell id="PWu2976QpV0TzekF0w1F-328" value="Proposed System" style="text;html=1;align=center;verticalAlign=middle;resizable=0;points=[];autosize=1;strokeColor=none;fillColor=none;fontFamily=Lucida Console;fontSize=17;" parent="1" vertex="1">
          <mxGeometry x="11485" y="123" width="180" height="30" as="geometry" />
        </mxCell>
        <mxCell id="PWu2976QpV0TzekF0w1F-329" value="" style="ellipse;html=1;shape=startState;fillColor=#000000;strokeColor=#ff0000;" parent="1" vertex="1">
          <mxGeometry x="11275" y="182" width="50" height="50" as="geometry" />
        </mxCell>
        <mxCell id="PWu2976QpV0TzekF0w1F-330" value="" style="edgeStyle=orthogonalEdgeStyle;html=1;verticalAlign=bottom;endArrow=open;endSize=8;strokeColor=#ff0000;rounded=0;entryX=0.5;entryY=0;entryDx=0;entryDy=0;" parent="1" edge="1">
          <mxGeometry relative="1" as="geometry">
            <mxPoint x="11300" y="257" as="targetPoint" />
            <mxPoint x="11300" y="227" as="sourcePoint" />
          </mxGeometry>
        </mxCell>
        <mxCell id="PWu2976QpV0TzekF0w1F-331" style="edgeStyle=orthogonalEdgeStyle;rounded=0;orthogonalLoop=1;jettySize=auto;html=1;exitX=1;exitY=0.5;exitDx=0;exitDy=0;" parent="1" target="PWu2976QpV0TzekF0w1F-333" edge="1">
          <mxGeometry relative="1" as="geometry">
            <mxPoint x="11355" y="282" as="sourcePoint" />
          </mxGeometry>
        </mxCell>
        <mxCell id="PWu2976QpV0TzekF0w1F-360" style="edgeStyle=orthogonalEdgeStyle;rounded=0;orthogonalLoop=1;jettySize=auto;html=1;entryX=0.5;entryY=0;entryDx=0;entryDy=0;" parent="1" source="PWu2976QpV0TzekF0w1F-333" target="PWu2976QpV0TzekF0w1F-340" edge="1">
          <mxGeometry relative="1" as="geometry" />
        </mxCell>
        <mxCell id="PWu2976QpV0TzekF0w1F-333" value="&lt;font style=&quot;font-size: 15px;&quot; face=&quot;Lucida Console&quot;&gt;Display the Violation Report Dashboard&lt;/font&gt;" style="rounded=1;whiteSpace=wrap;html=1;" parent="1" vertex="1">
          <mxGeometry x="11470" y="252" width="210" height="60" as="geometry" />
        </mxCell>
        <mxCell id="PWu2976QpV0TzekF0w1F-336" value="" style="ellipse;html=1;shape=endState;fillColor=#000000;strokeColor=#ff0000;" parent="1" vertex="1">
          <mxGeometry x="11575" y="732" width="50" height="50" as="geometry" />
        </mxCell>
        <mxCell id="PWu2976QpV0TzekF0w1F-337" value="&lt;font style=&quot;font-size: 15px;&quot; face=&quot;Lucida Console&quot;&gt;END&lt;/font&gt;" style="text;html=1;align=center;verticalAlign=middle;resizable=0;points=[];autosize=1;strokeColor=none;fillColor=none;" parent="1" vertex="1">
          <mxGeometry x="11575" y="790" width="50" height="30" as="geometry" />
        </mxCell>
        <mxCell id="PWu2976QpV0TzekF0w1F-338" value="&lt;font style=&quot;font-size: 15px;&quot; face=&quot;Lucida Console&quot;&gt;Click Violation Report&lt;/font&gt;" style="rounded=1;whiteSpace=wrap;html=1;" parent="1" vertex="1">
          <mxGeometry x="11220" y="252" width="160" height="60" as="geometry" />
        </mxCell>
        <mxCell id="PWu2976QpV0TzekF0w1F-339" style="edgeStyle=orthogonalEdgeStyle;rounded=0;orthogonalLoop=1;jettySize=auto;html=1;exitX=0.5;exitY=1;exitDx=0;exitDy=0;entryX=0.5;entryY=0;entryDx=0;entryDy=0;" parent="1" source="PWu2976QpV0TzekF0w1F-340" target="PWu2976QpV0TzekF0w1F-342" edge="1">
          <mxGeometry relative="1" as="geometry" />
        </mxCell>
        <mxCell id="PWu2976QpV0TzekF0w1F-340" value="&lt;font style=&quot;font-size: 15px;&quot; face=&quot;Lucida Console&quot;&gt;Display the list of scholars who have violations&lt;/font&gt;" style="rounded=1;whiteSpace=wrap;html=1;" parent="1" vertex="1">
          <mxGeometry x="11437.5" y="350" width="275" height="68" as="geometry" />
        </mxCell>
        <mxCell id="PWu2976QpV0TzekF0w1F-363" style="edgeStyle=orthogonalEdgeStyle;rounded=0;orthogonalLoop=1;jettySize=auto;html=1;exitX=1;exitY=0.5;exitDx=0;exitDy=0;entryX=0;entryY=0.5;entryDx=0;entryDy=0;" parent="1" source="PWu2976QpV0TzekF0w1F-342" target="PWu2976QpV0TzekF0w1F-346" edge="1">
          <mxGeometry relative="1" as="geometry" />
        </mxCell>
        <mxCell id="PWu2976QpV0TzekF0w1F-342" value="&lt;font face=&quot;Lucida Console&quot;&gt;&lt;span style=&quot;font-size: 15px;&quot;&gt;Click Apply Violation Button&lt;/span&gt;&lt;/font&gt;" style="rounded=1;whiteSpace=wrap;html=1;" parent="1" vertex="1">
          <mxGeometry x="11190" y="472" width="200" height="68" as="geometry" />
        </mxCell>
        <mxCell id="PWu2976QpV0TzekF0w1F-344" value="&lt;font face=&quot;Lucida Console&quot;&gt;&lt;span style=&quot;font-size: 15px;&quot;&gt;Subtract the Hours to the current Total Duty Hours in Gratis Logs Table&lt;/span&gt;&lt;/font&gt;" style="rounded=1;whiteSpace=wrap;html=1;" parent="1" vertex="1">
          <mxGeometry x="11470" y="591.5" width="260" height="85" as="geometry" />
        </mxCell>
        <mxCell id="PWu2976QpV0TzekF0w1F-345" style="edgeStyle=orthogonalEdgeStyle;rounded=0;orthogonalLoop=1;jettySize=auto;html=1;exitX=0.5;exitY=1;exitDx=0;exitDy=0;entryX=0.5;entryY=0;entryDx=0;entryDy=0;" parent="1" source="PWu2976QpV0TzekF0w1F-346" target="PWu2976QpV0TzekF0w1F-348" edge="1">
          <mxGeometry relative="1" as="geometry" />
        </mxCell>
        <mxCell id="PWu2976QpV0TzekF0w1F-346" value="&lt;font face=&quot;Lucida Console&quot;&gt;&lt;span style=&quot;font-size: 15px;&quot;&gt;Request to Input the Hours to add&lt;/span&gt;&lt;/font&gt;" style="rounded=1;whiteSpace=wrap;html=1;" parent="1" vertex="1">
          <mxGeometry x="11480" y="472" width="200" height="68" as="geometry" />
        </mxCell>
        <mxCell id="PWu2976QpV0TzekF0w1F-364" style="edgeStyle=orthogonalEdgeStyle;rounded=0;orthogonalLoop=1;jettySize=auto;html=1;exitX=1;exitY=0.5;exitDx=0;exitDy=0;entryX=0;entryY=0.5;entryDx=0;entryDy=0;" parent="1" source="PWu2976QpV0TzekF0w1F-348" target="PWu2976QpV0TzekF0w1F-344" edge="1">
          <mxGeometry relative="1" as="geometry" />
        </mxCell>
        <mxCell id="PWu2976QpV0TzekF0w1F-348" value="&lt;font face=&quot;Lucida Console&quot;&gt;&lt;span style=&quot;font-size: 15px;&quot;&gt;Input the Hours&lt;/span&gt;&lt;/font&gt;" style="rounded=1;whiteSpace=wrap;html=1;" parent="1" vertex="1">
          <mxGeometry x="11190" y="600" width="200" height="68" as="geometry" />
        </mxCell>
        <mxCell id="PWu2976QpV0TzekF0w1F-355" style="edgeStyle=orthogonalEdgeStyle;rounded=0;orthogonalLoop=1;jettySize=auto;html=1;entryX=0.5;entryY=0;entryDx=0;entryDy=0;" parent="1" source="PWu2976QpV0TzekF0w1F-344" target="PWu2976QpV0TzekF0w1F-336" edge="1">
          <mxGeometry relative="1" as="geometry">
            <mxPoint x="11587.5" y="1008" as="sourcePoint" />
          </mxGeometry>
        </mxCell>
        <mxCell id="G0AaEEZPSU1y5c9_qTYS-1" value="" style="shape=internalStorage;whiteSpace=wrap;html=1;backgroundOutline=1;dx=270;dy=40;strokeColor=light-dark(#000000, #ff9090);" vertex="1" parent="1">
          <mxGeometry x="12330" y="148" width="540" height="660" as="geometry" />
        </mxCell>
        <mxCell id="G0AaEEZPSU1y5c9_qTYS-2" value="Scholarship Admin" style="text;html=1;align=center;verticalAlign=middle;resizable=0;points=[];autosize=1;strokeColor=none;fillColor=none;fontFamily=Lucida Console;fontSize=17;" vertex="1" parent="1">
          <mxGeometry x="12375" y="154" width="200" height="30" as="geometry" />
        </mxCell>
        <mxCell id="G0AaEEZPSU1y5c9_qTYS-3" value="Proposed System" style="text;html=1;align=center;verticalAlign=middle;resizable=0;points=[];autosize=1;strokeColor=none;fillColor=none;fontFamily=Lucida Console;fontSize=17;" vertex="1" parent="1">
          <mxGeometry x="12655" y="154" width="180" height="30" as="geometry" />
        </mxCell>
        <mxCell id="G0AaEEZPSU1y5c9_qTYS-4" value="" style="ellipse;html=1;shape=startState;fillColor=none;strokeColor=light-dark(#000000, #ff9090);" vertex="1" parent="1">
          <mxGeometry x="12445" y="213" width="50" height="50" as="geometry" />
        </mxCell>
        <mxCell id="G0AaEEZPSU1y5c9_qTYS-5" value="" style="edgeStyle=orthogonalEdgeStyle;html=1;verticalAlign=bottom;endArrow=open;endSize=8;strokeColor=#000000;rounded=0;entryX=0.5;entryY=0;entryDx=0;entryDy=0;" edge="1" parent="1">
          <mxGeometry relative="1" as="geometry">
            <mxPoint x="12470" y="288" as="targetPoint" />
            <mxPoint x="12470" y="258" as="sourcePoint" />
          </mxGeometry>
        </mxCell>
        <mxCell id="G0AaEEZPSU1y5c9_qTYS-6" style="edgeStyle=orthogonalEdgeStyle;rounded=0;orthogonalLoop=1;jettySize=auto;html=1;exitX=1;exitY=0.5;exitDx=0;exitDy=0;" edge="1" target="G0AaEEZPSU1y5c9_qTYS-8" parent="1">
          <mxGeometry relative="1" as="geometry">
            <mxPoint x="12525" y="313" as="sourcePoint" />
          </mxGeometry>
        </mxCell>
        <mxCell id="G0AaEEZPSU1y5c9_qTYS-7" style="edgeStyle=orthogonalEdgeStyle;rounded=0;orthogonalLoop=1;jettySize=auto;html=1;exitX=0.5;exitY=1;exitDx=0;exitDy=0;" edge="1" source="G0AaEEZPSU1y5c9_qTYS-8" target="G0AaEEZPSU1y5c9_qTYS-10" parent="1">
          <mxGeometry relative="1" as="geometry" />
        </mxCell>
        <mxCell id="G0AaEEZPSU1y5c9_qTYS-8" value="&lt;font style=&quot;font-size: 15px;&quot; face=&quot;Lucida Console&quot;&gt;Display the Fellowship Date Dashboard&lt;/font&gt;" style="rounded=1;whiteSpace=wrap;html=1;" vertex="1" parent="1">
          <mxGeometry x="12650" y="283" width="190" height="60" as="geometry" />
        </mxCell>
        <mxCell id="G0AaEEZPSU1y5c9_qTYS-9" style="edgeStyle=orthogonalEdgeStyle;rounded=0;orthogonalLoop=1;jettySize=auto;html=1;exitX=1;exitY=0.5;exitDx=0;exitDy=0;entryX=0;entryY=0.5;entryDx=0;entryDy=0;" edge="1" source="G0AaEEZPSU1y5c9_qTYS-10" target="G0AaEEZPSU1y5c9_qTYS-15" parent="1">
          <mxGeometry relative="1" as="geometry">
            <mxPoint x="12565" y="535" as="sourcePoint" />
          </mxGeometry>
        </mxCell>
        <mxCell id="G0AaEEZPSU1y5c9_qTYS-10" value="&lt;font face=&quot;Lucida Console&quot;&gt;&lt;span style=&quot;font-size: 15px;&quot;&gt;Input the Fellowship Date&lt;/span&gt;&lt;/font&gt;" style="rounded=1;whiteSpace=wrap;html=1;" vertex="1" parent="1">
          <mxGeometry x="12375" y="398" width="190" height="60" as="geometry" />
        </mxCell>
        <mxCell id="G0AaEEZPSU1y5c9_qTYS-11" value="" style="ellipse;html=1;shape=endState;fillColor=none;strokeColor=light-dark(#000000, #ff9090);" vertex="1" parent="1">
          <mxGeometry x="12715" y="716" width="50" height="50" as="geometry" />
        </mxCell>
        <mxCell id="G0AaEEZPSU1y5c9_qTYS-12" value="&lt;font style=&quot;font-size: 15px;&quot; face=&quot;Lucida Console&quot;&gt;END&lt;/font&gt;" style="text;html=1;align=center;verticalAlign=middle;resizable=0;points=[];autosize=1;strokeColor=none;fillColor=none;" vertex="1" parent="1">
          <mxGeometry x="12715" y="766" width="50" height="30" as="geometry" />
        </mxCell>
        <mxCell id="G0AaEEZPSU1y5c9_qTYS-13" value="&lt;font style=&quot;font-size: 15px;&quot; face=&quot;Lucida Console&quot;&gt;Click Fellowship Date&lt;/font&gt;" style="rounded=1;whiteSpace=wrap;html=1;" vertex="1" parent="1">
          <mxGeometry x="12390" y="283" width="160" height="60" as="geometry" />
        </mxCell>
        <mxCell id="G0AaEEZPSU1y5c9_qTYS-14" style="edgeStyle=orthogonalEdgeStyle;rounded=0;orthogonalLoop=1;jettySize=auto;html=1;exitX=0.5;exitY=1;exitDx=0;exitDy=0;entryX=0.554;entryY=0.015;entryDx=0;entryDy=0;entryPerimeter=0;" edge="1" source="G0AaEEZPSU1y5c9_qTYS-15" target="G0AaEEZPSU1y5c9_qTYS-19" parent="1">
          <mxGeometry relative="1" as="geometry">
            <mxPoint x="12470" y="508" as="targetPoint" />
          </mxGeometry>
        </mxCell>
        <mxCell id="G0AaEEZPSU1y5c9_qTYS-15" value="&lt;font face=&quot;Lucida Console&quot;&gt;&lt;span style=&quot;font-size: 15px;&quot;&gt;Save the Fellowship Date per Church&lt;/span&gt;&lt;/font&gt;" style="rounded=1;whiteSpace=wrap;html=1;" vertex="1" parent="1">
          <mxGeometry x="12650" y="394" width="200" height="68" as="geometry" />
        </mxCell>
        <mxCell id="G0AaEEZPSU1y5c9_qTYS-18" style="edgeStyle=orthogonalEdgeStyle;rounded=0;orthogonalLoop=1;jettySize=auto;html=1;exitX=0.5;exitY=1;exitDx=0;exitDy=0;" edge="1" source="G0AaEEZPSU1y5c9_qTYS-19" target="G0AaEEZPSU1y5c9_qTYS-21" parent="1">
          <mxGeometry relative="1" as="geometry" />
        </mxCell>
        <mxCell id="G0AaEEZPSU1y5c9_qTYS-19" value="&lt;font style=&quot;font-size: 15px;&quot; face=&quot;Lucida Console&quot;&gt;Access the Church Table&lt;/font&gt;" style="rounded=1;whiteSpace=wrap;html=1;" vertex="1" parent="1">
          <mxGeometry x="12640" y="508" width="200" height="68" as="geometry" />
        </mxCell>
        <mxCell id="G0AaEEZPSU1y5c9_qTYS-20" style="edgeStyle=orthogonalEdgeStyle;rounded=0;orthogonalLoop=1;jettySize=auto;html=1;exitX=0.5;exitY=1;exitDx=0;exitDy=0;entryX=0.5;entryY=0;entryDx=0;entryDy=0;" edge="1" source="G0AaEEZPSU1y5c9_qTYS-21" target="G0AaEEZPSU1y5c9_qTYS-11" parent="1">
          <mxGeometry relative="1" as="geometry" />
        </mxCell>
        <mxCell id="G0AaEEZPSU1y5c9_qTYS-21" value="&lt;font face=&quot;Lucida Console&quot;&gt;&lt;span style=&quot;font-size: 15px;&quot;&gt;Display Set Successfully&lt;/span&gt;&lt;/font&gt;" style="rounded=1;whiteSpace=wrap;html=1;" vertex="1" parent="1">
          <mxGeometry x="12640" y="618" width="200" height="68" as="geometry" />
        </mxCell>
        <mxCell id="G0AaEEZPSU1y5c9_qTYS-43" value="" style="shape=internalStorage;whiteSpace=wrap;html=1;backgroundOutline=1;dx=270;dy=40;strokeColor=light-dark(#000000, #ff9090);fillColor=none;" vertex="1" parent="1">
          <mxGeometry x="13330" y="156" width="540" height="660" as="geometry" />
        </mxCell>
        <mxCell id="G0AaEEZPSU1y5c9_qTYS-44" value="Scholarship Admin" style="text;html=1;align=center;verticalAlign=middle;resizable=0;points=[];autosize=1;strokeColor=none;fillColor=none;fontFamily=Lucida Console;fontSize=17;" vertex="1" parent="1">
          <mxGeometry x="13375" y="162" width="200" height="30" as="geometry" />
        </mxCell>
        <mxCell id="G0AaEEZPSU1y5c9_qTYS-45" value="Proposed System" style="text;html=1;align=center;verticalAlign=middle;resizable=0;points=[];autosize=1;strokeColor=none;fillColor=none;fontFamily=Lucida Console;fontSize=17;" vertex="1" parent="1">
          <mxGeometry x="13655" y="162" width="180" height="30" as="geometry" />
        </mxCell>
        <mxCell id="G0AaEEZPSU1y5c9_qTYS-46" value="" style="ellipse;html=1;shape=startState;fillColor=none;strokeColor=light-dark(#000000, #ff9090);" vertex="1" parent="1">
          <mxGeometry x="13445" y="221" width="50" height="50" as="geometry" />
        </mxCell>
        <mxCell id="G0AaEEZPSU1y5c9_qTYS-47" value="" style="edgeStyle=orthogonalEdgeStyle;html=1;verticalAlign=bottom;endArrow=open;endSize=8;strokeColor=light-dark(#000000, #ff9090);rounded=0;entryX=0.5;entryY=0;entryDx=0;entryDy=0;" edge="1" parent="1">
          <mxGeometry relative="1" as="geometry">
            <mxPoint x="13470" y="296" as="targetPoint" />
            <mxPoint x="13470" y="266" as="sourcePoint" />
          </mxGeometry>
        </mxCell>
        <mxCell id="G0AaEEZPSU1y5c9_qTYS-48" style="edgeStyle=orthogonalEdgeStyle;rounded=0;orthogonalLoop=1;jettySize=auto;html=1;exitX=1;exitY=0.5;exitDx=0;exitDy=0;" edge="1" target="G0AaEEZPSU1y5c9_qTYS-50" parent="1">
          <mxGeometry relative="1" as="geometry">
            <mxPoint x="13525" y="321" as="sourcePoint" />
          </mxGeometry>
        </mxCell>
        <mxCell id="G0AaEEZPSU1y5c9_qTYS-49" style="edgeStyle=orthogonalEdgeStyle;rounded=0;orthogonalLoop=1;jettySize=auto;html=1;exitX=0.5;exitY=1;exitDx=0;exitDy=0;" edge="1" source="G0AaEEZPSU1y5c9_qTYS-50" target="G0AaEEZPSU1y5c9_qTYS-52" parent="1">
          <mxGeometry relative="1" as="geometry" />
        </mxCell>
        <mxCell id="G0AaEEZPSU1y5c9_qTYS-50" value="&lt;font style=&quot;font-size: 15px;&quot; face=&quot;Lucida Console&quot;&gt;Display the&amp;nbsp;&lt;/font&gt;&lt;span style=&quot;font-family: &amp;quot;Lucida Console&amp;quot;; font-size: 15px;&quot;&gt;Exit Request&lt;/span&gt;&lt;font style=&quot;font-size: 15px;&quot; face=&quot;Lucida Console&quot;&gt;&amp;nbsp;Dashboard&lt;/font&gt;" style="rounded=1;whiteSpace=wrap;html=1;" vertex="1" parent="1">
          <mxGeometry x="13650" y="291" width="190" height="60" as="geometry" />
        </mxCell>
        <mxCell id="G0AaEEZPSU1y5c9_qTYS-51" style="edgeStyle=orthogonalEdgeStyle;rounded=0;orthogonalLoop=1;jettySize=auto;html=1;exitX=1;exitY=0.5;exitDx=0;exitDy=0;entryX=0;entryY=0.5;entryDx=0;entryDy=0;" edge="1" source="G0AaEEZPSU1y5c9_qTYS-52" target="G0AaEEZPSU1y5c9_qTYS-57" parent="1">
          <mxGeometry relative="1" as="geometry">
            <mxPoint x="13565" y="543" as="sourcePoint" />
          </mxGeometry>
        </mxCell>
        <mxCell id="G0AaEEZPSU1y5c9_qTYS-52" value="&lt;font face=&quot;Lucida Console&quot;&gt;&lt;span style=&quot;font-size: 15px;&quot;&gt;Click the button Approve&lt;/span&gt;&lt;/font&gt;" style="rounded=1;whiteSpace=wrap;html=1;" vertex="1" parent="1">
          <mxGeometry x="13375" y="406" width="190" height="60" as="geometry" />
        </mxCell>
        <mxCell id="G0AaEEZPSU1y5c9_qTYS-53" value="" style="ellipse;html=1;shape=endState;fillColor=default;strokeColor=light-dark(#000000, #ff9090);" vertex="1" parent="1">
          <mxGeometry x="13715" y="724" width="50" height="50" as="geometry" />
        </mxCell>
        <mxCell id="G0AaEEZPSU1y5c9_qTYS-54" value="&lt;font style=&quot;font-size: 15px;&quot; face=&quot;Lucida Console&quot;&gt;END&lt;/font&gt;" style="text;html=1;align=center;verticalAlign=middle;resizable=0;points=[];autosize=1;strokeColor=none;fillColor=none;" vertex="1" parent="1">
          <mxGeometry x="13715" y="774" width="50" height="30" as="geometry" />
        </mxCell>
        <mxCell id="G0AaEEZPSU1y5c9_qTYS-55" value="&lt;font style=&quot;font-size: 15px;&quot; face=&quot;Lucida Console&quot;&gt;Click Exit Request&lt;/font&gt;" style="rounded=1;whiteSpace=wrap;html=1;" vertex="1" parent="1">
          <mxGeometry x="13390" y="291" width="160" height="60" as="geometry" />
        </mxCell>
        <mxCell id="G0AaEEZPSU1y5c9_qTYS-56" style="edgeStyle=orthogonalEdgeStyle;rounded=0;orthogonalLoop=1;jettySize=auto;html=1;exitX=0.5;exitY=1;exitDx=0;exitDy=0;entryX=0.5;entryY=0;entryDx=0;entryDy=0;" edge="1" source="G0AaEEZPSU1y5c9_qTYS-57" target="G0AaEEZPSU1y5c9_qTYS-59" parent="1">
          <mxGeometry relative="1" as="geometry">
            <mxPoint x="13470" y="516" as="targetPoint" />
          </mxGeometry>
        </mxCell>
        <mxCell id="G0AaEEZPSU1y5c9_qTYS-57" value="&lt;font face=&quot;Lucida Console&quot;&gt;&lt;span style=&quot;font-size: 15px;&quot;&gt;Disable the User Account&lt;/span&gt;&lt;/font&gt;" style="rounded=1;whiteSpace=wrap;html=1;" vertex="1" parent="1">
          <mxGeometry x="13638" y="402" width="200" height="68" as="geometry" />
        </mxCell>
        <mxCell id="G0AaEEZPSU1y5c9_qTYS-58" style="edgeStyle=orthogonalEdgeStyle;rounded=0;orthogonalLoop=1;jettySize=auto;html=1;exitX=0.5;exitY=1;exitDx=0;exitDy=0;" edge="1" source="G0AaEEZPSU1y5c9_qTYS-59" target="G0AaEEZPSU1y5c9_qTYS-61" parent="1">
          <mxGeometry relative="1" as="geometry" />
        </mxCell>
        <mxCell id="G0AaEEZPSU1y5c9_qTYS-59" value="&lt;font face=&quot;Lucida Console&quot;&gt;&lt;span style=&quot;font-size: 15px;&quot;&gt;Subtract by one in the Scholar Slot Limit&amp;nbsp;&amp;nbsp;&lt;/span&gt;&lt;/font&gt;" style="rounded=1;whiteSpace=wrap;html=1;" vertex="1" parent="1">
          <mxGeometry x="13628" y="513" width="220" height="68" as="geometry" />
        </mxCell>
        <mxCell id="G0AaEEZPSU1y5c9_qTYS-60" style="edgeStyle=orthogonalEdgeStyle;rounded=0;orthogonalLoop=1;jettySize=auto;html=1;exitX=0.5;exitY=1;exitDx=0;exitDy=0;entryX=0.5;entryY=0;entryDx=0;entryDy=0;" edge="1" source="G0AaEEZPSU1y5c9_qTYS-61" target="G0AaEEZPSU1y5c9_qTYS-53" parent="1">
          <mxGeometry relative="1" as="geometry" />
        </mxCell>
        <mxCell id="G0AaEEZPSU1y5c9_qTYS-61" value="&lt;font face=&quot;Lucida Console&quot;&gt;&lt;span style=&quot;font-size: 15px;&quot;&gt;Display Approve Successfully&lt;/span&gt;&lt;/font&gt;" style="rounded=1;whiteSpace=wrap;html=1;" vertex="1" parent="1">
          <mxGeometry x="13638" y="626" width="200" height="68" as="geometry" />
        </mxCell>
        <mxCell id="G0AaEEZPSU1y5c9_qTYS-62" value="" style="shape=internalStorage;whiteSpace=wrap;html=1;backgroundOutline=1;dx=270;dy=40;strokeColor=light-dark(#000000, #ff9090);fillColor=none;" vertex="1" parent="1">
          <mxGeometry x="14450" y="160" width="540" height="660" as="geometry" />
        </mxCell>
        <mxCell id="G0AaEEZPSU1y5c9_qTYS-63" value="Scholarship Admin" style="text;html=1;align=center;verticalAlign=middle;resizable=0;points=[];autosize=1;strokeColor=none;fillColor=none;fontFamily=Lucida Console;fontSize=17;" vertex="1" parent="1">
          <mxGeometry x="14495" y="166" width="200" height="30" as="geometry" />
        </mxCell>
        <mxCell id="G0AaEEZPSU1y5c9_qTYS-64" value="Proposed System" style="text;html=1;align=center;verticalAlign=middle;resizable=0;points=[];autosize=1;strokeColor=none;fillColor=none;fontFamily=Lucida Console;fontSize=17;" vertex="1" parent="1">
          <mxGeometry x="14775" y="166" width="180" height="30" as="geometry" />
        </mxCell>
        <mxCell id="G0AaEEZPSU1y5c9_qTYS-65" value="" style="ellipse;html=1;shape=startState;fillColor=none;strokeColor=light-dark(#000000, #ff9090);" vertex="1" parent="1">
          <mxGeometry x="14565" y="225" width="50" height="50" as="geometry" />
        </mxCell>
        <mxCell id="G0AaEEZPSU1y5c9_qTYS-66" value="" style="edgeStyle=orthogonalEdgeStyle;html=1;verticalAlign=bottom;endArrow=open;endSize=8;strokeColor=light-dark(#000000, #ff9090);rounded=0;entryX=0.5;entryY=0;entryDx=0;entryDy=0;" edge="1" parent="1">
          <mxGeometry relative="1" as="geometry">
            <mxPoint x="14590" y="300" as="targetPoint" />
            <mxPoint x="14590" y="270" as="sourcePoint" />
          </mxGeometry>
        </mxCell>
        <mxCell id="G0AaEEZPSU1y5c9_qTYS-67" style="edgeStyle=orthogonalEdgeStyle;rounded=0;orthogonalLoop=1;jettySize=auto;html=1;exitX=1;exitY=0.5;exitDx=0;exitDy=0;" edge="1" target="G0AaEEZPSU1y5c9_qTYS-69" parent="1">
          <mxGeometry relative="1" as="geometry">
            <mxPoint x="14645" y="325" as="sourcePoint" />
          </mxGeometry>
        </mxCell>
        <mxCell id="G0AaEEZPSU1y5c9_qTYS-68" style="edgeStyle=orthogonalEdgeStyle;rounded=0;orthogonalLoop=1;jettySize=auto;html=1;exitX=0.5;exitY=1;exitDx=0;exitDy=0;" edge="1" source="G0AaEEZPSU1y5c9_qTYS-69" target="G0AaEEZPSU1y5c9_qTYS-71" parent="1">
          <mxGeometry relative="1" as="geometry" />
        </mxCell>
        <mxCell id="G0AaEEZPSU1y5c9_qTYS-69" value="&lt;font style=&quot;font-size: 15px;&quot; face=&quot;Lucida Console&quot;&gt;Display the&amp;nbsp;&lt;/font&gt;&lt;span style=&quot;font-family: &amp;quot;Lucida Console&amp;quot;; font-size: 15px;&quot;&gt;Application Request&lt;/span&gt;&lt;font style=&quot;font-size: 15px;&quot; face=&quot;Lucida Console&quot;&gt;&amp;nbsp;Dashboard&lt;/font&gt;" style="rounded=1;whiteSpace=wrap;html=1;" vertex="1" parent="1">
          <mxGeometry x="14770" y="295" width="190" height="60" as="geometry" />
        </mxCell>
        <mxCell id="G0AaEEZPSU1y5c9_qTYS-70" style="edgeStyle=orthogonalEdgeStyle;rounded=0;orthogonalLoop=1;jettySize=auto;html=1;exitX=1;exitY=0.5;exitDx=0;exitDy=0;entryX=0;entryY=0.5;entryDx=0;entryDy=0;" edge="1" source="G0AaEEZPSU1y5c9_qTYS-71" target="G0AaEEZPSU1y5c9_qTYS-76" parent="1">
          <mxGeometry relative="1" as="geometry">
            <mxPoint x="14685" y="547" as="sourcePoint" />
          </mxGeometry>
        </mxCell>
        <mxCell id="G0AaEEZPSU1y5c9_qTYS-71" value="&lt;font face=&quot;Lucida Console&quot;&gt;&lt;span style=&quot;font-size: 15px;&quot;&gt;Click the button Approve&lt;/span&gt;&lt;/font&gt;" style="rounded=1;whiteSpace=wrap;html=1;" vertex="1" parent="1">
          <mxGeometry x="14495" y="410" width="190" height="60" as="geometry" />
        </mxCell>
        <mxCell id="G0AaEEZPSU1y5c9_qTYS-72" value="" style="ellipse;html=1;shape=endState;fillColor=default;strokeColor=light-dark(#000000, #ff9090);" vertex="1" parent="1">
          <mxGeometry x="14835" y="728" width="50" height="50" as="geometry" />
        </mxCell>
        <mxCell id="G0AaEEZPSU1y5c9_qTYS-73" value="&lt;font style=&quot;font-size: 15px;&quot; face=&quot;Lucida Console&quot;&gt;END&lt;/font&gt;" style="text;html=1;align=center;verticalAlign=middle;resizable=0;points=[];autosize=1;strokeColor=none;fillColor=none;" vertex="1" parent="1">
          <mxGeometry x="14835" y="778" width="50" height="30" as="geometry" />
        </mxCell>
        <mxCell id="G0AaEEZPSU1y5c9_qTYS-74" value="&lt;font style=&quot;font-size: 15px;&quot; face=&quot;Lucida Console&quot;&gt;Click Application Request&lt;/font&gt;" style="rounded=1;whiteSpace=wrap;html=1;" vertex="1" parent="1">
          <mxGeometry x="14510" y="295" width="160" height="60" as="geometry" />
        </mxCell>
        <mxCell id="G0AaEEZPSU1y5c9_qTYS-75" style="edgeStyle=orthogonalEdgeStyle;rounded=0;orthogonalLoop=1;jettySize=auto;html=1;exitX=0.5;exitY=1;exitDx=0;exitDy=0;entryX=0.5;entryY=0;entryDx=0;entryDy=0;" edge="1" source="G0AaEEZPSU1y5c9_qTYS-76" target="G0AaEEZPSU1y5c9_qTYS-78" parent="1">
          <mxGeometry relative="1" as="geometry">
            <mxPoint x="14590" y="520" as="targetPoint" />
          </mxGeometry>
        </mxCell>
        <mxCell id="G0AaEEZPSU1y5c9_qTYS-76" value="&lt;font face=&quot;Lucida Console&quot;&gt;&lt;span style=&quot;font-size: 15px;&quot;&gt;Disable the User Account&lt;/span&gt;&lt;/font&gt;" style="rounded=1;whiteSpace=wrap;html=1;" vertex="1" parent="1">
          <mxGeometry x="14758" y="406" width="200" height="68" as="geometry" />
        </mxCell>
        <mxCell id="G0AaEEZPSU1y5c9_qTYS-77" style="edgeStyle=orthogonalEdgeStyle;rounded=0;orthogonalLoop=1;jettySize=auto;html=1;exitX=0.5;exitY=1;exitDx=0;exitDy=0;" edge="1" source="G0AaEEZPSU1y5c9_qTYS-78" target="G0AaEEZPSU1y5c9_qTYS-80" parent="1">
          <mxGeometry relative="1" as="geometry" />
        </mxCell>
        <mxCell id="G0AaEEZPSU1y5c9_qTYS-78" value="&lt;font face=&quot;Lucida Console&quot;&gt;&lt;span style=&quot;font-size: 15px;&quot;&gt;Add by one in the Scholar Slot Limit&amp;nbsp;&amp;nbsp;&lt;/span&gt;&lt;/font&gt;" style="rounded=1;whiteSpace=wrap;html=1;" vertex="1" parent="1">
          <mxGeometry x="14748" y="517" width="220" height="68" as="geometry" />
        </mxCell>
        <mxCell id="G0AaEEZPSU1y5c9_qTYS-79" style="edgeStyle=orthogonalEdgeStyle;rounded=0;orthogonalLoop=1;jettySize=auto;html=1;exitX=0.5;exitY=1;exitDx=0;exitDy=0;entryX=0.5;entryY=0;entryDx=0;entryDy=0;" edge="1" source="G0AaEEZPSU1y5c9_qTYS-80" target="G0AaEEZPSU1y5c9_qTYS-72" parent="1">
          <mxGeometry relative="1" as="geometry" />
        </mxCell>
        <mxCell id="G0AaEEZPSU1y5c9_qTYS-80" value="&lt;font face=&quot;Lucida Console&quot;&gt;&lt;span style=&quot;font-size: 15px;&quot;&gt;Display Approve Successfully&lt;/span&gt;&lt;/font&gt;" style="rounded=1;whiteSpace=wrap;html=1;" vertex="1" parent="1">
          <mxGeometry x="14758" y="630" width="200" height="68" as="geometry" />
        </mxCell>
        <mxCell id="G0AaEEZPSU1y5c9_qTYS-81" value="" style="shape=internalStorage;whiteSpace=wrap;html=1;backgroundOutline=1;dx=270;dy=40;strokeColor=light-dark(#000000, #ff9090);fillColor=none;" vertex="1" parent="1">
          <mxGeometry x="15490" y="166" width="540" height="660" as="geometry" />
        </mxCell>
        <mxCell id="G0AaEEZPSU1y5c9_qTYS-82" value="Scholarship Admin" style="text;html=1;align=center;verticalAlign=middle;resizable=0;points=[];autosize=1;strokeColor=none;fillColor=none;fontFamily=Lucida Console;fontSize=17;" vertex="1" parent="1">
          <mxGeometry x="15535" y="172" width="200" height="30" as="geometry" />
        </mxCell>
        <mxCell id="G0AaEEZPSU1y5c9_qTYS-83" value="Proposed System" style="text;html=1;align=center;verticalAlign=middle;resizable=0;points=[];autosize=1;strokeColor=none;fillColor=none;fontFamily=Lucida Console;fontSize=17;" vertex="1" parent="1">
          <mxGeometry x="15815" y="172" width="180" height="30" as="geometry" />
        </mxCell>
        <mxCell id="G0AaEEZPSU1y5c9_qTYS-84" value="" style="ellipse;html=1;shape=startState;fillColor=none;strokeColor=light-dark(#000000, #ff9090);" vertex="1" parent="1">
          <mxGeometry x="15605" y="231" width="50" height="50" as="geometry" />
        </mxCell>
        <mxCell id="G0AaEEZPSU1y5c9_qTYS-85" value="" style="edgeStyle=orthogonalEdgeStyle;html=1;verticalAlign=bottom;endArrow=open;endSize=8;strokeColor=light-dark(#000000, #ff9090);rounded=0;entryX=0.5;entryY=0;entryDx=0;entryDy=0;" edge="1" parent="1">
          <mxGeometry relative="1" as="geometry">
            <mxPoint x="15630" y="306" as="targetPoint" />
            <mxPoint x="15630" y="276" as="sourcePoint" />
          </mxGeometry>
        </mxCell>
        <mxCell id="G0AaEEZPSU1y5c9_qTYS-86" style="edgeStyle=orthogonalEdgeStyle;rounded=0;orthogonalLoop=1;jettySize=auto;html=1;exitX=1;exitY=0.5;exitDx=0;exitDy=0;" edge="1" target="G0AaEEZPSU1y5c9_qTYS-88" parent="1">
          <mxGeometry relative="1" as="geometry">
            <mxPoint x="15685" y="331" as="sourcePoint" />
          </mxGeometry>
        </mxCell>
        <mxCell id="G0AaEEZPSU1y5c9_qTYS-87" style="edgeStyle=orthogonalEdgeStyle;rounded=0;orthogonalLoop=1;jettySize=auto;html=1;exitX=0.5;exitY=1;exitDx=0;exitDy=0;" edge="1" source="G0AaEEZPSU1y5c9_qTYS-88" target="G0AaEEZPSU1y5c9_qTYS-90" parent="1">
          <mxGeometry relative="1" as="geometry" />
        </mxCell>
        <mxCell id="G0AaEEZPSU1y5c9_qTYS-88" value="&lt;font style=&quot;font-size: 15px;&quot; face=&quot;Lucida Console&quot;&gt;Display the&amp;nbsp;&lt;/font&gt;&lt;span style=&quot;font-family: &amp;quot;Lucida Console&amp;quot;; font-size: 15px;&quot;&gt;Renewal Request&lt;/span&gt;&lt;font style=&quot;font-size: 15px;&quot; face=&quot;Lucida Console&quot;&gt;&amp;nbsp;Dashboard&lt;/font&gt;" style="rounded=1;whiteSpace=wrap;html=1;" vertex="1" parent="1">
          <mxGeometry x="15810" y="301" width="190" height="60" as="geometry" />
        </mxCell>
        <mxCell id="G0AaEEZPSU1y5c9_qTYS-89" style="edgeStyle=orthogonalEdgeStyle;rounded=0;orthogonalLoop=1;jettySize=auto;html=1;exitX=1;exitY=0.5;exitDx=0;exitDy=0;entryX=0;entryY=0.5;entryDx=0;entryDy=0;" edge="1" source="G0AaEEZPSU1y5c9_qTYS-90" target="G0AaEEZPSU1y5c9_qTYS-95" parent="1">
          <mxGeometry relative="1" as="geometry">
            <mxPoint x="15725" y="553" as="sourcePoint" />
          </mxGeometry>
        </mxCell>
        <mxCell id="G0AaEEZPSU1y5c9_qTYS-90" value="&lt;font face=&quot;Lucida Console&quot;&gt;&lt;span style=&quot;font-size: 15px;&quot;&gt;Click the button Approve&lt;/span&gt;&lt;/font&gt;" style="rounded=1;whiteSpace=wrap;html=1;" vertex="1" parent="1">
          <mxGeometry x="15535" y="416" width="190" height="60" as="geometry" />
        </mxCell>
        <mxCell id="G0AaEEZPSU1y5c9_qTYS-91" value="" style="ellipse;html=1;shape=endState;fillColor=default;strokeColor=light-dark(#000000, #ff9090);" vertex="1" parent="1">
          <mxGeometry x="15875" y="734" width="50" height="50" as="geometry" />
        </mxCell>
        <mxCell id="G0AaEEZPSU1y5c9_qTYS-92" value="&lt;font style=&quot;font-size: 15px;&quot; face=&quot;Lucida Console&quot;&gt;END&lt;/font&gt;" style="text;html=1;align=center;verticalAlign=middle;resizable=0;points=[];autosize=1;strokeColor=none;fillColor=none;" vertex="1" parent="1">
          <mxGeometry x="15875" y="784" width="50" height="30" as="geometry" />
        </mxCell>
        <mxCell id="G0AaEEZPSU1y5c9_qTYS-93" value="&lt;font style=&quot;font-size: 15px;&quot; face=&quot;Lucida Console&quot;&gt;Click Renewal Request&lt;/font&gt;" style="rounded=1;whiteSpace=wrap;html=1;" vertex="1" parent="1">
          <mxGeometry x="15550" y="301" width="160" height="60" as="geometry" />
        </mxCell>
        <mxCell id="G0AaEEZPSU1y5c9_qTYS-94" style="edgeStyle=orthogonalEdgeStyle;rounded=0;orthogonalLoop=1;jettySize=auto;html=1;exitX=0.5;exitY=1;exitDx=0;exitDy=0;entryX=0.5;entryY=0;entryDx=0;entryDy=0;" edge="1" source="G0AaEEZPSU1y5c9_qTYS-95" target="G0AaEEZPSU1y5c9_qTYS-97" parent="1">
          <mxGeometry relative="1" as="geometry">
            <mxPoint x="15630" y="526" as="targetPoint" />
          </mxGeometry>
        </mxCell>
        <mxCell id="G0AaEEZPSU1y5c9_qTYS-95" value="&lt;font face=&quot;Lucida Console&quot;&gt;&lt;span style=&quot;font-size: 15px;&quot;&gt;Disable the User Account&lt;/span&gt;&lt;/font&gt;" style="rounded=1;whiteSpace=wrap;html=1;" vertex="1" parent="1">
          <mxGeometry x="15798" y="412" width="200" height="68" as="geometry" />
        </mxCell>
        <mxCell id="G0AaEEZPSU1y5c9_qTYS-96" style="edgeStyle=orthogonalEdgeStyle;rounded=0;orthogonalLoop=1;jettySize=auto;html=1;exitX=0.5;exitY=1;exitDx=0;exitDy=0;" edge="1" source="G0AaEEZPSU1y5c9_qTYS-97" target="G0AaEEZPSU1y5c9_qTYS-99" parent="1">
          <mxGeometry relative="1" as="geometry" />
        </mxCell>
        <mxCell id="G0AaEEZPSU1y5c9_qTYS-97" value="&lt;font face=&quot;Lucida Console&quot;&gt;&lt;span style=&quot;font-size: 15px;&quot;&gt;Add by one in the Scholar Slot Limit&amp;nbsp;&amp;nbsp;&lt;/span&gt;&lt;/font&gt;" style="rounded=1;whiteSpace=wrap;html=1;" vertex="1" parent="1">
          <mxGeometry x="15788" y="523" width="220" height="68" as="geometry" />
        </mxCell>
        <mxCell id="G0AaEEZPSU1y5c9_qTYS-98" style="edgeStyle=orthogonalEdgeStyle;rounded=0;orthogonalLoop=1;jettySize=auto;html=1;exitX=0.5;exitY=1;exitDx=0;exitDy=0;entryX=0.5;entryY=0;entryDx=0;entryDy=0;" edge="1" source="G0AaEEZPSU1y5c9_qTYS-99" target="G0AaEEZPSU1y5c9_qTYS-91" parent="1">
          <mxGeometry relative="1" as="geometry" />
        </mxCell>
        <mxCell id="G0AaEEZPSU1y5c9_qTYS-99" value="&lt;font face=&quot;Lucida Console&quot;&gt;&lt;span style=&quot;font-size: 15px;&quot;&gt;Display Approve Successfully&lt;/span&gt;&lt;/font&gt;" style="rounded=1;whiteSpace=wrap;html=1;" vertex="1" parent="1">
          <mxGeometry x="15798" y="636" width="200" height="68" as="geometry" />
        </mxCell>
      </root>
    </mxGraphModel>
  </diagram>
</mxfile>
